<mxfile host="Electron" modified="2024-09-15T20:09:57.255Z" agent="Mozilla/5.0 (Windows NT 10.0; Win64; x64) AppleWebKit/537.36 (KHTML, like Gecko) draw.io/22.1.16 Chrome/120.0.6099.109 Electron/28.1.0 Safari/537.36" etag="gtJECDzINU_FaqykSDqR" version="22.1.16" type="device">
  <diagram name="Page-1" id="-H_mtQnk-PTXWXPvYvuk">
    <mxGraphModel dx="2535" dy="2458" grid="1" gridSize="10" guides="1" tooltips="1" connect="1" arrows="1" fold="1" page="1" pageScale="1" pageWidth="1169" pageHeight="827" math="0" shadow="0">
      <root>
        <mxCell id="0" />
        <mxCell id="1" parent="0" />
        <mxCell id="BcHQkoFd5CSXZ37SSxC_-18" value="" style="rounded=0;whiteSpace=wrap;html=1;fillColor=#d1d2f5;opacity=20;" parent="1" vertex="1">
          <mxGeometry x="-1111" y="-661" width="2280" height="1950" as="geometry" />
        </mxCell>
        <mxCell id="BcHQkoFd5CSXZ37SSxC_-1" value="" style="rounded=1;whiteSpace=wrap;html=1;fontColor=none;noLabel=1;labelBackgroundColor=#fffb85;textOpacity=50;fillStyle=solid;gradientColor=none;gradientDirection=north;fillColor=#eef099;shadow=0;glass=0;opacity=25;" parent="1" vertex="1">
          <mxGeometry x="-1040" y="-263" width="842" height="763" as="geometry" />
        </mxCell>
        <mxCell id="xjxATC7eD6JjGwYjVx3A-135" value="" style="rounded=1;whiteSpace=wrap;html=1;fontColor=none;noLabel=1;labelBackgroundColor=#fffb85;textOpacity=50;fillStyle=solid;gradientColor=none;gradientDirection=north;fillColor=#eef099;shadow=0;glass=0;opacity=45;" parent="1" vertex="1">
          <mxGeometry x="-100" y="670" width="500" height="520" as="geometry" />
        </mxCell>
        <mxCell id="xjxATC7eD6JjGwYjVx3A-131" value="" style="rounded=1;whiteSpace=wrap;html=1;fontColor=none;noLabel=1;labelBackgroundColor=#fffb85;textOpacity=50;fillStyle=solid;gradientColor=none;gradientDirection=north;fillColor=#eef099;shadow=0;glass=0;opacity=25;" parent="1" vertex="1">
          <mxGeometry x="602" y="107" width="400" height="370" as="geometry" />
        </mxCell>
        <mxCell id="xjxATC7eD6JjGwYjVx3A-133" value="" style="rounded=1;whiteSpace=wrap;html=1;fontColor=none;noLabel=1;labelBackgroundColor=#fffb85;textOpacity=50;fillStyle=solid;gradientColor=none;gradientDirection=north;fillColor=#eef099;shadow=0;glass=0;opacity=25;" parent="1" vertex="1">
          <mxGeometry x="-30" y="390" width="580" height="510" as="geometry" />
        </mxCell>
        <mxCell id="so9MObPZlSBn5EpZIMos-1" style="edgeStyle=orthogonalEdgeStyle;rounded=0;orthogonalLoop=1;jettySize=auto;html=1;startArrow=classic;startFill=1;" parent="1" source="zA23MoTUsTF4_91t8viU-3" target="xjxATC7eD6JjGwYjVx3A-131" edge="1">
          <mxGeometry relative="1" as="geometry" />
        </mxCell>
        <mxCell id="zA23MoTUsTF4_91t8viU-3" value="pymongo-api" style="rounded=1;whiteSpace=wrap;html=1;" parent="1" vertex="1">
          <mxGeometry x="130" y="202" width="120" height="60" as="geometry" />
        </mxCell>
        <mxCell id="zA23MoTUsTF4_91t8viU-4" style="edgeStyle=orthogonalEdgeStyle;rounded=0;orthogonalLoop=1;jettySize=auto;html=1;exitX=1;exitY=0.5;exitDx=0;exitDy=0;startArrow=classic;startFill=1;" parent="1" source="zA23MoTUsTF4_91t8viU-3" target="xjxATC7eD6JjGwYjVx3A-26" edge="1">
          <mxGeometry relative="1" as="geometry">
            <mxPoint x="560" y="320" as="targetPoint" />
          </mxGeometry>
        </mxCell>
        <mxCell id="so9MObPZlSBn5EpZIMos-3" value="2) Запрос к БД" style="edgeLabel;html=1;align=center;verticalAlign=middle;resizable=0;points=[];" parent="zA23MoTUsTF4_91t8viU-4" vertex="1" connectable="0">
          <mxGeometry x="-0.2448" relative="1" as="geometry">
            <mxPoint as="offset" />
          </mxGeometry>
        </mxCell>
        <mxCell id="xjxATC7eD6JjGwYjVx3A-29" value="" style="edgeStyle=orthogonalEdgeStyle;rounded=0;orthogonalLoop=1;jettySize=auto;html=1;" parent="1" source="xjxATC7eD6JjGwYjVx3A-26" target="xjxATC7eD6JjGwYjVx3A-28" edge="1">
          <mxGeometry relative="1" as="geometry" />
        </mxCell>
        <mxCell id="xjxATC7eD6JjGwYjVx3A-31" value="" style="edgeStyle=orthogonalEdgeStyle;rounded=0;orthogonalLoop=1;jettySize=auto;html=1;" parent="1" source="xjxATC7eD6JjGwYjVx3A-26" target="xjxATC7eD6JjGwYjVx3A-30" edge="1">
          <mxGeometry relative="1" as="geometry" />
        </mxCell>
        <mxCell id="xjxATC7eD6JjGwYjVx3A-33" value="" style="edgeStyle=orthogonalEdgeStyle;rounded=0;orthogonalLoop=1;jettySize=auto;html=1;entryX=0;entryY=0.5;entryDx=0;entryDy=0;" parent="1" source="xjxATC7eD6JjGwYjVx3A-26" target="xjxATC7eD6JjGwYjVx3A-32" edge="1">
          <mxGeometry relative="1" as="geometry" />
        </mxCell>
        <mxCell id="xjxATC7eD6JjGwYjVx3A-26" value="&lt;b&gt;Роутер&lt;/b&gt;" style="rounded=1;whiteSpace=wrap;html=1;fillColor=#b1ddf0;strokeColor=#10739e;" parent="1" vertex="1">
          <mxGeometry x="210" y="520" width="120" height="60" as="geometry" />
        </mxCell>
        <mxCell id="xjxATC7eD6JjGwYjVx3A-28" value="Шард1" style="rounded=1;whiteSpace=wrap;html=1;fillColor=#b1ddf0;strokeColor=#10739e;" parent="1" vertex="1">
          <mxGeometry x="70" y="640" width="120" height="30" as="geometry" />
        </mxCell>
        <mxCell id="xjxATC7eD6JjGwYjVx3A-30" value="Шард2" style="rounded=1;whiteSpace=wrap;html=1;fillColor=#b1ddf0;strokeColor=#10739e;" parent="1" vertex="1">
          <mxGeometry x="210" y="640" width="120" height="30" as="geometry" />
        </mxCell>
        <mxCell id="xjxATC7eD6JjGwYjVx3A-32" value="&lt;b&gt;Конфигурационный сервер&lt;/b&gt;" style="rounded=1;whiteSpace=wrap;html=1;fillColor=#fad7ac;strokeColor=#b46504;" parent="1" vertex="1">
          <mxGeometry x="400" y="520" width="120" height="60" as="geometry" />
        </mxCell>
        <mxCell id="xjxATC7eD6JjGwYjVx3A-41" value="Replicaset" style="text;html=1;strokeColor=none;fillColor=none;align=center;verticalAlign=middle;whiteSpace=wrap;rounded=0;" parent="1" vertex="1">
          <mxGeometry x="10" y="610" width="60" height="30" as="geometry" />
        </mxCell>
        <mxCell id="xjxATC7eD6JjGwYjVx3A-99" value="Шардирование&amp;nbsp;&lt;br&gt;MongoDB" style="text;strokeColor=none;fillColor=none;html=1;fontSize=24;fontStyle=1;verticalAlign=middle;align=center;" parent="1" vertex="1">
          <mxGeometry x="25" y="419" width="100" height="40" as="geometry" />
        </mxCell>
        <mxCell id="xjxATC7eD6JjGwYjVx3A-102" value="" style="shape=cylinder3;whiteSpace=wrap;html=1;boundedLbl=1;backgroundOutline=1;size=15;shadow=1;fillStyle=hatch;movable=1;resizable=1;rotatable=1;deletable=1;editable=1;locked=0;connectable=1;fillColor=#99FFFF;" parent="1" vertex="1">
          <mxGeometry x="45" y="710" width="60" height="40" as="geometry" />
        </mxCell>
        <mxCell id="xjxATC7eD6JjGwYjVx3A-104" value="" style="group" parent="1" vertex="1" connectable="0">
          <mxGeometry x="-20" y="800" width="80" height="60" as="geometry" />
        </mxCell>
        <mxCell id="xjxATC7eD6JjGwYjVx3A-105" value="" style="shape=cylinder3;whiteSpace=wrap;html=1;boundedLbl=1;backgroundOutline=1;size=15;fillStyle=solid;shadow=1;" parent="xjxATC7eD6JjGwYjVx3A-104" vertex="1">
          <mxGeometry y="20" width="60" height="40" as="geometry" />
        </mxCell>
        <mxCell id="xjxATC7eD6JjGwYjVx3A-106" value="" style="shape=cylinder3;whiteSpace=wrap;html=1;boundedLbl=1;backgroundOutline=1;size=15;fillStyle=solid;shadow=1;" parent="xjxATC7eD6JjGwYjVx3A-104" vertex="1">
          <mxGeometry width="60" height="40" as="geometry" />
        </mxCell>
        <mxCell id="xjxATC7eD6JjGwYjVx3A-107" value="S" style="text;strokeColor=none;fillColor=none;html=1;fontSize=24;fontStyle=1;verticalAlign=middle;align=center;" parent="xjxATC7eD6JjGwYjVx3A-104" vertex="1">
          <mxGeometry x="-20" y="-20" width="100" height="40" as="geometry" />
        </mxCell>
        <mxCell id="xjxATC7eD6JjGwYjVx3A-108" value="" style="shape=cylinder3;whiteSpace=wrap;html=1;boundedLbl=1;backgroundOutline=1;size=15;fillStyle=solid;shadow=1;" parent="1" vertex="1">
          <mxGeometry x="-20" y="930" width="60" height="40" as="geometry" />
        </mxCell>
        <mxCell id="d8I7f4nJBKEhvR8xaNe3-2" style="edgeStyle=orthogonalEdgeStyle;rounded=0;orthogonalLoop=1;jettySize=auto;html=1;startArrow=classic;startFill=1;strokeColor=#64ff00;" parent="1" source="xjxATC7eD6JjGwYjVx3A-109" target="xjxATC7eD6JjGwYjVx3A-119" edge="1">
          <mxGeometry relative="1" as="geometry" />
        </mxCell>
        <mxCell id="d8I7f4nJBKEhvR8xaNe3-4" value="heartbeat" style="edgeLabel;html=1;align=center;verticalAlign=middle;resizable=0;points=[];" parent="d8I7f4nJBKEhvR8xaNe3-2" vertex="1" connectable="0">
          <mxGeometry x="0.0267" y="2" relative="1" as="geometry">
            <mxPoint as="offset" />
          </mxGeometry>
        </mxCell>
        <mxCell id="xjxATC7eD6JjGwYjVx3A-109" value="" style="shape=cylinder3;whiteSpace=wrap;html=1;boundedLbl=1;backgroundOutline=1;size=15;fillStyle=solid;shadow=1;" parent="1" vertex="1">
          <mxGeometry x="-20" y="910" width="60" height="40" as="geometry" />
        </mxCell>
        <mxCell id="xjxATC7eD6JjGwYjVx3A-110" style="edgeStyle=orthogonalEdgeStyle;rounded=0;orthogonalLoop=1;jettySize=auto;html=1;exitX=0.855;exitY=1;exitDx=0;exitDy=-4.35;exitPerimeter=0;entryX=0.5;entryY=1;entryDx=0;entryDy=0;entryPerimeter=0;endArrow=classic;endFill=1;startArrow=classic;startFill=1;curved=1;" parent="1" source="xjxATC7eD6JjGwYjVx3A-106" target="xjxATC7eD6JjGwYjVx3A-102" edge="1">
          <mxGeometry relative="1" as="geometry" />
        </mxCell>
        <mxCell id="xjxATC7eD6JjGwYjVx3A-111" style="edgeStyle=orthogonalEdgeStyle;rounded=0;orthogonalLoop=1;jettySize=auto;html=1;curved=1;startArrow=classic;startFill=1;" parent="1" source="xjxATC7eD6JjGwYjVx3A-108" target="xjxATC7eD6JjGwYjVx3A-102" edge="1">
          <mxGeometry relative="1" as="geometry" />
        </mxCell>
        <mxCell id="xjxATC7eD6JjGwYjVx3A-112" style="edgeStyle=orthogonalEdgeStyle;rounded=0;orthogonalLoop=1;jettySize=auto;html=1;fillColor=#0050ef;strokeColor=#001DBC;entryX=0;entryY=0;entryDx=0;entryDy=15;entryPerimeter=0;" parent="1" source="xjxATC7eD6JjGwYjVx3A-102" target="xjxATC7eD6JjGwYjVx3A-108" edge="1">
          <mxGeometry relative="1" as="geometry">
            <mxPoint x="220" y="780" as="targetPoint" />
          </mxGeometry>
        </mxCell>
        <mxCell id="xjxATC7eD6JjGwYjVx3A-114" style="edgeStyle=orthogonalEdgeStyle;rounded=0;orthogonalLoop=1;jettySize=auto;html=1;fillColor=#0050ef;strokeColor=#001DBC;entryX=0;entryY=0;entryDx=0;entryDy=15;entryPerimeter=0;" parent="1" source="xjxATC7eD6JjGwYjVx3A-102" target="xjxATC7eD6JjGwYjVx3A-105" edge="1">
          <mxGeometry relative="1" as="geometry">
            <Array as="points">
              <mxPoint x="-40" y="730" />
              <mxPoint x="-40" y="835" />
            </Array>
          </mxGeometry>
        </mxCell>
        <mxCell id="xjxATC7eD6JjGwYjVx3A-115" value="репликация" style="edgeLabel;html=1;align=center;verticalAlign=middle;resizable=0;points=[];" parent="xjxATC7eD6JjGwYjVx3A-114" vertex="1" connectable="0">
          <mxGeometry x="-0.1744" y="-1" relative="1" as="geometry">
            <mxPoint as="offset" />
          </mxGeometry>
        </mxCell>
        <mxCell id="xjxATC7eD6JjGwYjVx3A-118" value="" style="shape=cylinder3;whiteSpace=wrap;html=1;boundedLbl=1;backgroundOutline=1;size=15;fillStyle=solid;shadow=1;" parent="1" vertex="1">
          <mxGeometry x="-20" y="1030" width="60" height="40" as="geometry" />
        </mxCell>
        <mxCell id="xjxATC7eD6JjGwYjVx3A-124" style="edgeStyle=orthogonalEdgeStyle;rounded=0;orthogonalLoop=1;jettySize=auto;html=1;curved=1;entryX=0.5;entryY=1;entryDx=0;entryDy=0;entryPerimeter=0;startArrow=classic;startFill=1;" parent="1" source="xjxATC7eD6JjGwYjVx3A-119" target="xjxATC7eD6JjGwYjVx3A-102" edge="1">
          <mxGeometry relative="1" as="geometry">
            <mxPoint x="120" y="760.0000000000002" as="targetPoint" />
            <Array as="points">
              <mxPoint x="120" y="1040" />
            </Array>
          </mxGeometry>
        </mxCell>
        <mxCell id="xjxATC7eD6JjGwYjVx3A-119" value="" style="shape=cylinder3;whiteSpace=wrap;html=1;boundedLbl=1;backgroundOutline=1;size=15;fillStyle=solid;shadow=1;" parent="1" vertex="1">
          <mxGeometry x="-20" y="1020" width="60" height="40" as="geometry" />
        </mxCell>
        <mxCell id="xjxATC7eD6JjGwYjVx3A-126" style="edgeStyle=orthogonalEdgeStyle;rounded=0;orthogonalLoop=1;jettySize=auto;html=1;fillColor=#0050ef;strokeColor=#001DBC;exitX=0;exitY=0.5;exitDx=0;exitDy=0;exitPerimeter=0;entryX=0;entryY=1;entryDx=0;entryDy=-15;entryPerimeter=0;" parent="1" source="xjxATC7eD6JjGwYjVx3A-102" target="xjxATC7eD6JjGwYjVx3A-119" edge="1">
          <mxGeometry relative="1" as="geometry">
            <mxPoint x="360" y="780" as="targetPoint" />
            <mxPoint x="189.52" y="720.0000000000002" as="sourcePoint" />
            <Array as="points">
              <mxPoint x="-40" y="730" />
              <mxPoint x="-40" y="1045" />
            </Array>
          </mxGeometry>
        </mxCell>
        <mxCell id="xjxATC7eD6JjGwYjVx3A-15" value="" style="group;fillColor=default;strokeColor=#0896e7;fontColor=#ffffff;gradientColor=none;fillStyle=auto;" parent="1" vertex="1" connectable="0">
          <mxGeometry x="672" y="212" width="60" height="60" as="geometry" />
        </mxCell>
        <mxCell id="xjxATC7eD6JjGwYjVx3A-16" value="" style="shape=cylinder3;whiteSpace=wrap;html=1;boundedLbl=1;backgroundOutline=1;size=15;fixDash=0;container=0;dropTarget=0;movable=1;resizable=1;rotatable=1;deletable=1;editable=1;locked=0;connectable=1;fillColor=default;" parent="xjxATC7eD6JjGwYjVx3A-15" vertex="1">
          <mxGeometry width="60" height="40" as="geometry" />
        </mxCell>
        <mxCell id="xjxATC7eD6JjGwYjVx3A-17" value="" style="shape=cylinder3;whiteSpace=wrap;html=1;boundedLbl=1;backgroundOutline=1;size=15;shadow=1;fillStyle=hatch;movable=1;resizable=1;rotatable=1;deletable=1;editable=1;locked=0;connectable=1;fillColor=#99FFFF;" parent="xjxATC7eD6JjGwYjVx3A-15" vertex="1">
          <mxGeometry y="20" width="60" height="40" as="geometry" />
        </mxCell>
        <mxCell id="xjxATC7eD6JjGwYjVx3A-57" value="Кеширование в Redis" style="text;strokeColor=none;fillColor=none;html=1;fontSize=24;fontStyle=1;verticalAlign=middle;align=center;" parent="1" vertex="1">
          <mxGeometry x="692" y="117" width="100" height="40" as="geometry" />
        </mxCell>
        <mxCell id="xjxATC7eD6JjGwYjVx3A-58" value="M1" style="text;strokeColor=none;fillColor=none;html=1;fontSize=24;fontStyle=1;verticalAlign=middle;align=center;" parent="1" vertex="1">
          <mxGeometry x="652" y="192" width="100" height="40" as="geometry" />
        </mxCell>
        <mxCell id="xjxATC7eD6JjGwYjVx3A-130" value="3 вариант схемы" style="text;strokeColor=none;fillColor=none;html=1;fontSize=14;fontStyle=0;verticalAlign=middle;align=center;" parent="1" vertex="1">
          <mxGeometry x="839" y="100" width="100" height="40" as="geometry" />
        </mxCell>
        <mxCell id="xjxATC7eD6JjGwYjVx3A-132" value="1 вариант схемы" style="text;strokeColor=none;fillColor=none;html=1;fontSize=14;fontStyle=0;verticalAlign=middle;align=center;" parent="1" vertex="1">
          <mxGeometry x="107" y="388" width="100" height="40" as="geometry" />
        </mxCell>
        <mxCell id="xjxATC7eD6JjGwYjVx3A-136" value="Репликация&lt;br style=&quot;border-color: var(--border-color);&quot;&gt;&amp;nbsp;MongoDB" style="text;strokeColor=none;fillColor=none;html=1;fontSize=24;fontStyle=1;verticalAlign=middle;align=center;" parent="1" vertex="1">
          <mxGeometry x="190" y="1141" width="100" height="35" as="geometry" />
        </mxCell>
        <mxCell id="xjxATC7eD6JjGwYjVx3A-137" value="2 вариант схемы" style="text;strokeColor=none;fillColor=none;html=1;fontSize=14;fontStyle=0;verticalAlign=middle;align=center;" parent="1" vertex="1">
          <mxGeometry x="280" y="1110" width="100" height="40" as="geometry" />
        </mxCell>
        <mxCell id="d8I7f4nJBKEhvR8xaNe3-1" style="edgeStyle=orthogonalEdgeStyle;rounded=0;orthogonalLoop=1;jettySize=auto;html=1;entryX=0.5;entryY=0;entryDx=0;entryDy=0;entryPerimeter=0;startArrow=classic;startFill=1;strokeColor=#6dee53;" parent="1" source="xjxATC7eD6JjGwYjVx3A-106" target="xjxATC7eD6JjGwYjVx3A-109" edge="1">
          <mxGeometry relative="1" as="geometry" />
        </mxCell>
        <mxCell id="d8I7f4nJBKEhvR8xaNe3-3" value="heartbeat" style="edgeLabel;html=1;align=center;verticalAlign=middle;resizable=0;points=[];" parent="d8I7f4nJBKEhvR8xaNe3-1" vertex="1" connectable="0">
          <mxGeometry x="0.0148" relative="1" as="geometry">
            <mxPoint as="offset" />
          </mxGeometry>
        </mxCell>
        <mxCell id="xjxATC7eD6JjGwYjVx3A-101" value="" style="shape=cylinder3;whiteSpace=wrap;html=1;boundedLbl=1;backgroundOutline=1;size=15;fixDash=0;container=0;dropTarget=0;movable=1;resizable=1;rotatable=1;deletable=1;editable=1;locked=0;connectable=1;fillColor=default;" parent="1" vertex="1">
          <mxGeometry x="45" y="692" width="60" height="40" as="geometry" />
        </mxCell>
        <mxCell id="d8I7f4nJBKEhvR8xaNe3-6" value="M" style="text;strokeColor=none;fillColor=none;html=1;fontSize=24;fontStyle=1;verticalAlign=middle;align=center;" parent="1" vertex="1">
          <mxGeometry x="25" y="680" width="100" height="40" as="geometry" />
        </mxCell>
        <mxCell id="d8I7f4nJBKEhvR8xaNe3-7" value="" style="shape=cylinder3;whiteSpace=wrap;html=1;boundedLbl=1;backgroundOutline=1;size=15;shadow=1;fillStyle=hatch;movable=1;resizable=1;rotatable=1;deletable=1;editable=1;locked=0;connectable=1;fillColor=#99FFFF;" parent="1" vertex="1">
          <mxGeometry x="220" y="698" width="60" height="40" as="geometry" />
        </mxCell>
        <mxCell id="d8I7f4nJBKEhvR8xaNe3-8" value="" style="group" parent="1" vertex="1" connectable="0">
          <mxGeometry x="299.95" y="790" width="80" height="60" as="geometry" />
        </mxCell>
        <mxCell id="d8I7f4nJBKEhvR8xaNe3-9" value="" style="shape=cylinder3;whiteSpace=wrap;html=1;boundedLbl=1;backgroundOutline=1;size=15;fillStyle=solid;shadow=1;" parent="d8I7f4nJBKEhvR8xaNe3-8" vertex="1">
          <mxGeometry y="20" width="60" height="40" as="geometry" />
        </mxCell>
        <mxCell id="d8I7f4nJBKEhvR8xaNe3-10" value="" style="shape=cylinder3;whiteSpace=wrap;html=1;boundedLbl=1;backgroundOutline=1;size=15;fillStyle=solid;shadow=1;" parent="d8I7f4nJBKEhvR8xaNe3-8" vertex="1">
          <mxGeometry width="60" height="40" as="geometry" />
        </mxCell>
        <mxCell id="d8I7f4nJBKEhvR8xaNe3-11" value="S" style="text;strokeColor=none;fillColor=none;html=1;fontSize=24;fontStyle=1;verticalAlign=middle;align=center;" parent="d8I7f4nJBKEhvR8xaNe3-8" vertex="1">
          <mxGeometry x="-20" y="-20" width="100" height="40" as="geometry" />
        </mxCell>
        <mxCell id="d8I7f4nJBKEhvR8xaNe3-12" value="" style="shape=cylinder3;whiteSpace=wrap;html=1;boundedLbl=1;backgroundOutline=1;size=15;fillStyle=solid;shadow=1;" parent="1" vertex="1">
          <mxGeometry x="299.95" y="920" width="60" height="40" as="geometry" />
        </mxCell>
        <mxCell id="d8I7f4nJBKEhvR8xaNe3-13" style="edgeStyle=orthogonalEdgeStyle;rounded=0;orthogonalLoop=1;jettySize=auto;html=1;startArrow=classic;startFill=1;strokeColor=#52ff86;" parent="1" target="d8I7f4nJBKEhvR8xaNe3-23" edge="1">
          <mxGeometry relative="1" as="geometry">
            <mxPoint x="330" y="959" as="sourcePoint" />
          </mxGeometry>
        </mxCell>
        <mxCell id="d8I7f4nJBKEhvR8xaNe3-14" value="heartbeat" style="edgeLabel;html=1;align=center;verticalAlign=middle;resizable=0;points=[];" parent="d8I7f4nJBKEhvR8xaNe3-13" vertex="1" connectable="0">
          <mxGeometry x="0.0267" y="2" relative="1" as="geometry">
            <mxPoint as="offset" />
          </mxGeometry>
        </mxCell>
        <mxCell id="d8I7f4nJBKEhvR8xaNe3-15" value="" style="shape=cylinder3;whiteSpace=wrap;html=1;boundedLbl=1;backgroundOutline=1;size=15;fillStyle=solid;shadow=1;" parent="1" vertex="1">
          <mxGeometry x="299.95" y="900" width="60" height="40" as="geometry" />
        </mxCell>
        <mxCell id="d8I7f4nJBKEhvR8xaNe3-16" style="edgeStyle=orthogonalEdgeStyle;rounded=0;orthogonalLoop=1;jettySize=auto;html=1;exitX=0;exitY=0;exitDx=0;exitDy=17.5;exitPerimeter=0;entryX=0.5;entryY=1;entryDx=0;entryDy=0;entryPerimeter=0;endArrow=classic;endFill=1;startArrow=classic;startFill=1;curved=1;" parent="1" source="d8I7f4nJBKEhvR8xaNe3-9" target="d8I7f4nJBKEhvR8xaNe3-7" edge="1">
          <mxGeometry relative="1" as="geometry" />
        </mxCell>
        <mxCell id="d8I7f4nJBKEhvR8xaNe3-17" style="edgeStyle=orthogonalEdgeStyle;rounded=0;orthogonalLoop=1;jettySize=auto;html=1;curved=1;startArrow=classic;startFill=1;" parent="1" source="d8I7f4nJBKEhvR8xaNe3-12" target="d8I7f4nJBKEhvR8xaNe3-7" edge="1">
          <mxGeometry relative="1" as="geometry" />
        </mxCell>
        <mxCell id="d8I7f4nJBKEhvR8xaNe3-21" value="" style="shape=cylinder3;whiteSpace=wrap;html=1;boundedLbl=1;backgroundOutline=1;size=15;fillStyle=solid;shadow=1;" parent="1" vertex="1">
          <mxGeometry x="299.95" y="1020" width="60" height="40" as="geometry" />
        </mxCell>
        <mxCell id="d8I7f4nJBKEhvR8xaNe3-22" style="edgeStyle=orthogonalEdgeStyle;rounded=0;orthogonalLoop=1;jettySize=auto;html=1;curved=1;entryX=0.5;entryY=1;entryDx=0;entryDy=0;entryPerimeter=0;startArrow=classic;startFill=1;" parent="1" source="d8I7f4nJBKEhvR8xaNe3-23" target="d8I7f4nJBKEhvR8xaNe3-7" edge="1">
          <mxGeometry relative="1" as="geometry">
            <mxPoint x="439.95" y="750.0000000000002" as="targetPoint" />
            <Array as="points">
              <mxPoint x="240" y="1030" />
              <mxPoint x="240" y="738" />
            </Array>
          </mxGeometry>
        </mxCell>
        <mxCell id="d8I7f4nJBKEhvR8xaNe3-23" value="" style="shape=cylinder3;whiteSpace=wrap;html=1;boundedLbl=1;backgroundOutline=1;size=15;fillStyle=solid;shadow=1;" parent="1" vertex="1">
          <mxGeometry x="299.95" y="1010" width="60" height="40" as="geometry" />
        </mxCell>
        <mxCell id="d8I7f4nJBKEhvR8xaNe3-25" style="edgeStyle=orthogonalEdgeStyle;rounded=0;orthogonalLoop=1;jettySize=auto;html=1;entryX=0.5;entryY=0;entryDx=0;entryDy=0;entryPerimeter=0;startArrow=classic;startFill=1;strokeColor=#64ff00;" parent="1" target="d8I7f4nJBKEhvR8xaNe3-15" edge="1">
          <mxGeometry relative="1" as="geometry">
            <mxPoint x="330" y="849" as="sourcePoint" />
          </mxGeometry>
        </mxCell>
        <mxCell id="d8I7f4nJBKEhvR8xaNe3-26" value="heartbeat" style="edgeLabel;html=1;align=center;verticalAlign=middle;resizable=0;points=[];" parent="d8I7f4nJBKEhvR8xaNe3-25" vertex="1" connectable="0">
          <mxGeometry x="0.0148" relative="1" as="geometry">
            <mxPoint as="offset" />
          </mxGeometry>
        </mxCell>
        <mxCell id="d8I7f4nJBKEhvR8xaNe3-27" value="" style="shape=cylinder3;whiteSpace=wrap;html=1;boundedLbl=1;backgroundOutline=1;size=15;fixDash=0;container=0;dropTarget=0;movable=1;resizable=1;rotatable=1;deletable=1;editable=1;locked=0;connectable=1;fillColor=default;" parent="1" vertex="1">
          <mxGeometry x="220" y="680" width="60" height="40" as="geometry" />
        </mxCell>
        <mxCell id="d8I7f4nJBKEhvR8xaNe3-28" value="M" style="text;strokeColor=none;fillColor=none;html=1;fontSize=24;fontStyle=1;verticalAlign=middle;align=center;" parent="1" vertex="1">
          <mxGeometry x="199.99999999999994" y="670" width="100" height="40" as="geometry" />
        </mxCell>
        <mxCell id="d8I7f4nJBKEhvR8xaNe3-32" style="edgeStyle=orthogonalEdgeStyle;rounded=0;orthogonalLoop=1;jettySize=auto;html=1;entryX=1;entryY=0.5;entryDx=0;entryDy=0;entryPerimeter=0;" parent="1" source="d8I7f4nJBKEhvR8xaNe3-7" target="d8I7f4nJBKEhvR8xaNe3-9" edge="1">
          <mxGeometry relative="1" as="geometry" />
        </mxCell>
        <mxCell id="d8I7f4nJBKEhvR8xaNe3-33" style="edgeStyle=orthogonalEdgeStyle;rounded=0;orthogonalLoop=1;jettySize=auto;html=1;entryX=1;entryY=0.5;entryDx=0;entryDy=0;entryPerimeter=0;" parent="1" source="d8I7f4nJBKEhvR8xaNe3-7" target="d8I7f4nJBKEhvR8xaNe3-12" edge="1">
          <mxGeometry relative="1" as="geometry" />
        </mxCell>
        <mxCell id="d8I7f4nJBKEhvR8xaNe3-34" style="edgeStyle=orthogonalEdgeStyle;rounded=0;orthogonalLoop=1;jettySize=auto;html=1;entryX=1;entryY=0.5;entryDx=0;entryDy=0;entryPerimeter=0;strokeColor=#3a30c5;" parent="1" source="d8I7f4nJBKEhvR8xaNe3-7" target="d8I7f4nJBKEhvR8xaNe3-21" edge="1">
          <mxGeometry relative="1" as="geometry" />
        </mxCell>
        <mxCell id="d8I7f4nJBKEhvR8xaNe3-35" value="репликация" style="edgeLabel;html=1;align=center;verticalAlign=middle;resizable=0;points=[];" parent="d8I7f4nJBKEhvR8xaNe3-34" vertex="1" connectable="0">
          <mxGeometry x="-0.8115" y="2" relative="1" as="geometry">
            <mxPoint as="offset" />
          </mxGeometry>
        </mxCell>
        <mxCell id="d8I7f4nJBKEhvR8xaNe3-36" value="S" style="text;strokeColor=none;fillColor=none;html=1;fontSize=24;fontStyle=1;verticalAlign=middle;align=center;" parent="1" vertex="1">
          <mxGeometry x="279.95" y="889" width="100" height="40" as="geometry" />
        </mxCell>
        <mxCell id="d8I7f4nJBKEhvR8xaNe3-37" value="S" style="text;strokeColor=none;fillColor=none;html=1;fontSize=24;fontStyle=1;verticalAlign=middle;align=center;" parent="1" vertex="1">
          <mxGeometry x="279.95" y="999" width="100" height="40" as="geometry" />
        </mxCell>
        <mxCell id="d8I7f4nJBKEhvR8xaNe3-42" value="S" style="text;strokeColor=none;fillColor=none;html=1;fontSize=24;fontStyle=1;verticalAlign=middle;align=center;" parent="1" vertex="1">
          <mxGeometry x="-40" y="900" width="100" height="40" as="geometry" />
        </mxCell>
        <mxCell id="d8I7f4nJBKEhvR8xaNe3-43" value="S" style="text;strokeColor=none;fillColor=none;html=1;fontSize=24;fontStyle=1;verticalAlign=middle;align=center;" parent="1" vertex="1">
          <mxGeometry x="-40" y="1010" width="100" height="40" as="geometry" />
        </mxCell>
        <mxCell id="fn_h6VyJFIPkfJgqNohM-31" style="edgeStyle=orthogonalEdgeStyle;rounded=0;orthogonalLoop=1;jettySize=auto;html=1;entryX=0;entryY=0.5;entryDx=0;entryDy=0;" parent="1" source="fn_h6VyJFIPkfJgqNohM-8" target="BcHQkoFd5CSXZ37SSxC_-22" edge="1">
          <mxGeometry relative="1" as="geometry">
            <mxPoint x="-470" y="-2" as="targetPoint" />
            <Array as="points">
              <mxPoint x="-463" y="-570" />
              <mxPoint x="25" y="-570" />
            </Array>
          </mxGeometry>
        </mxCell>
        <mxCell id="fn_h6VyJFIPkfJgqNohM-8" value="" style="rounded=1;whiteSpace=wrap;html=1;fillColor=#fd96ef;" parent="1" vertex="1">
          <mxGeometry x="-584" y="-440" width="241" height="110" as="geometry" />
        </mxCell>
        <mxCell id="fn_h6VyJFIPkfJgqNohM-9" value="" style="shape=actor;whiteSpace=wrap;html=1;" parent="1" vertex="1">
          <mxGeometry x="-545" y="-430" width="76" height="60" as="geometry" />
        </mxCell>
        <mxCell id="fn_h6VyJFIPkfJgqNohM-11" value="" style="shape=actor;whiteSpace=wrap;html=1;" parent="1" vertex="1">
          <mxGeometry x="-473" y="-430" width="60" height="60" as="geometry" />
        </mxCell>
        <mxCell id="fn_h6VyJFIPkfJgqNohM-12" value="" style="shape=actor;whiteSpace=wrap;html=1;" parent="1" vertex="1">
          <mxGeometry x="-493" y="-400" width="54" height="60" as="geometry" />
        </mxCell>
        <mxCell id="BcHQkoFd5CSXZ37SSxC_-9" style="edgeStyle=orthogonalEdgeStyle;rounded=0;orthogonalLoop=1;jettySize=auto;html=1;" parent="1" source="fn_h6VyJFIPkfJgqNohM-13" target="BcHQkoFd5CSXZ37SSxC_-8" edge="1">
          <mxGeometry relative="1" as="geometry">
            <Array as="points">
              <mxPoint x="-646" y="175" />
              <mxPoint x="-890" y="175" />
            </Array>
          </mxGeometry>
        </mxCell>
        <mxCell id="fn_h6VyJFIPkfJgqNohM-13" value="&lt;font size=&quot;1&quot;&gt;APISIX Gateway&lt;/font&gt;" style="rounded=0;whiteSpace=wrap;html=1;" parent="1" vertex="1">
          <mxGeometry x="-706" y="97" width="120" height="60" as="geometry" />
        </mxCell>
        <mxCell id="fn_h6VyJFIPkfJgqNohM-16" style="edgeStyle=orthogonalEdgeStyle;rounded=0;orthogonalLoop=1;jettySize=auto;html=1;entryX=0;entryY=0.5;entryDx=0;entryDy=0;" parent="1" source="fn_h6VyJFIPkfJgqNohM-14" target="fn_h6VyJFIPkfJgqNohM-15" edge="1">
          <mxGeometry relative="1" as="geometry" />
        </mxCell>
        <mxCell id="fn_h6VyJFIPkfJgqNohM-17" value="Получить список сервисов" style="edgeLabel;html=1;align=center;verticalAlign=middle;resizable=0;points=[];" parent="fn_h6VyJFIPkfJgqNohM-16" vertex="1" connectable="0">
          <mxGeometry x="-0.3034" y="2" relative="1" as="geometry">
            <mxPoint x="14" y="2" as="offset" />
          </mxGeometry>
        </mxCell>
        <mxCell id="fn_h6VyJFIPkfJgqNohM-14" value="consul_kv" style="rounded=1;whiteSpace=wrap;html=1;" parent="1" vertex="1">
          <mxGeometry x="-606" y="112" width="56" height="30" as="geometry" />
        </mxCell>
        <mxCell id="fn_h6VyJFIPkfJgqNohM-15" value="Consul" style="rounded=0;whiteSpace=wrap;html=1;" parent="1" vertex="1">
          <mxGeometry x="-380" y="97" width="120" height="60" as="geometry" />
        </mxCell>
        <mxCell id="fn_h6VyJFIPkfJgqNohM-22" style="edgeStyle=orthogonalEdgeStyle;rounded=0;orthogonalLoop=1;jettySize=auto;html=1;" parent="1" source="fn_h6VyJFIPkfJgqNohM-18" target="fn_h6VyJFIPkfJgqNohM-15" edge="1">
          <mxGeometry relative="1" as="geometry" />
        </mxCell>
        <mxCell id="fn_h6VyJFIPkfJgqNohM-24" value="регистрация" style="edgeLabel;html=1;align=center;verticalAlign=middle;resizable=0;points=[];" parent="fn_h6VyJFIPkfJgqNohM-22" vertex="1" connectable="0">
          <mxGeometry x="0.2807" y="2" relative="1" as="geometry">
            <mxPoint x="235" y="-65" as="offset" />
          </mxGeometry>
        </mxCell>
        <mxCell id="BcHQkoFd5CSXZ37SSxC_-7" style="edgeStyle=orthogonalEdgeStyle;rounded=0;orthogonalLoop=1;jettySize=auto;html=1;dashed=1;dashPattern=1 1;" parent="1" source="fn_h6VyJFIPkfJgqNohM-18" edge="1">
          <mxGeometry relative="1" as="geometry">
            <mxPoint x="603" y="320" as="targetPoint" />
            <Array as="points">
              <mxPoint x="-640" y="320" />
              <mxPoint x="603" y="320" />
            </Array>
          </mxGeometry>
        </mxCell>
        <mxCell id="BcHQkoFd5CSXZ37SSxC_-16" value="запрос в кеш" style="edgeLabel;html=1;align=center;verticalAlign=middle;resizable=0;points=[];" parent="BcHQkoFd5CSXZ37SSxC_-7" vertex="1" connectable="0">
          <mxGeometry x="-0.6734" y="1" relative="1" as="geometry">
            <mxPoint as="offset" />
          </mxGeometry>
        </mxCell>
        <mxCell id="fn_h6VyJFIPkfJgqNohM-18" value="pymongo-api(2 инстанс)" style="rounded=0;whiteSpace=wrap;html=1;" parent="1" vertex="1">
          <mxGeometry x="-740" y="197" width="200" height="120" as="geometry" />
        </mxCell>
        <mxCell id="fn_h6VyJFIPkfJgqNohM-23" style="edgeStyle=orthogonalEdgeStyle;rounded=0;orthogonalLoop=1;jettySize=auto;html=1;exitX=0.5;exitY=0;exitDx=0;exitDy=0;" parent="1" source="zA23MoTUsTF4_91t8viU-3" edge="1">
          <mxGeometry relative="1" as="geometry">
            <mxPoint x="-320" y="167" as="targetPoint" />
            <mxPoint x="-315" y="247" as="sourcePoint" />
            <Array as="points">
              <mxPoint x="190" y="182" />
              <mxPoint x="-319" y="182" />
              <mxPoint x="-319" y="167" />
            </Array>
          </mxGeometry>
        </mxCell>
        <mxCell id="fn_h6VyJFIPkfJgqNohM-27" style="edgeStyle=orthogonalEdgeStyle;rounded=0;orthogonalLoop=1;jettySize=auto;html=1;startArrow=classic;startFill=1;entryX=0.5;entryY=0;entryDx=0;entryDy=0;dashed=1;" parent="1" target="xjxATC7eD6JjGwYjVx3A-26" edge="1">
          <mxGeometry relative="1" as="geometry">
            <Array as="points">
              <mxPoint x="-589" y="347" />
              <mxPoint x="270" y="347" />
            </Array>
            <mxPoint x="-589" y="317" as="sourcePoint" />
            <mxPoint x="-320" y="347" as="targetPoint" />
          </mxGeometry>
        </mxCell>
        <mxCell id="fn_h6VyJFIPkfJgqNohM-28" style="edgeStyle=orthogonalEdgeStyle;rounded=0;orthogonalLoop=1;jettySize=auto;html=1;" parent="1" source="fn_h6VyJFIPkfJgqNohM-13" edge="1">
          <mxGeometry relative="1" as="geometry">
            <mxPoint x="-646" y="197" as="targetPoint" />
          </mxGeometry>
        </mxCell>
        <mxCell id="fn_h6VyJFIPkfJgqNohM-29" style="edgeStyle=orthogonalEdgeStyle;rounded=0;orthogonalLoop=1;jettySize=auto;html=1;entryX=0;entryY=0.5;entryDx=0;entryDy=0;" parent="1" source="fn_h6VyJFIPkfJgqNohM-13" target="zA23MoTUsTF4_91t8viU-3" edge="1">
          <mxGeometry relative="1" as="geometry">
            <Array as="points">
              <mxPoint x="-646" y="177" />
              <mxPoint x="-460" y="177" />
              <mxPoint x="-460" y="232" />
            </Array>
            <mxPoint x="-378.44000000000005" y="252.27999999999997" as="targetPoint" />
          </mxGeometry>
        </mxCell>
        <mxCell id="fn_h6VyJFIPkfJgqNohM-32" style="edgeStyle=orthogonalEdgeStyle;rounded=0;orthogonalLoop=1;jettySize=auto;html=1;entryX=0.5;entryY=0;entryDx=0;entryDy=0;" parent="1" source="fn_h6VyJFIPkfJgqNohM-30" target="fn_h6VyJFIPkfJgqNohM-13" edge="1">
          <mxGeometry relative="1" as="geometry" />
        </mxCell>
        <mxCell id="fn_h6VyJFIPkfJgqNohM-30" value="Сайт&lt;br&gt;Nginx" style="rounded=1;whiteSpace=wrap;html=1;" parent="1" vertex="1">
          <mxGeometry x="-532" y="-3" width="120" height="60" as="geometry" />
        </mxCell>
        <mxCell id="so9MObPZlSBn5EpZIMos-2" value="1) Запрс в кеш" style="text;html=1;strokeColor=none;fillColor=none;align=center;verticalAlign=middle;whiteSpace=wrap;rounded=0;" parent="1" vertex="1">
          <mxGeometry x="309.95" y="212" width="80.05" height="30" as="geometry" />
        </mxCell>
        <mxCell id="BcHQkoFd5CSXZ37SSxC_-2" value="&lt;h1 style=&quot;margin-top: 0px; box-sizing: inherit; font-family: &amp;quot;YS Text&amp;quot;, Arial, Helvetica, sans-serif; padding-top: 0px; border-top: none; color: rgba(0, 0, 0, 0.85); text-align: start; background-color: rgb(255, 255, 255); font-size: 25px;&quot;&gt;&lt;br&gt;&lt;/h1&gt;" style="text;strokeColor=none;fillColor=none;html=1;fontSize=24;fontStyle=1;verticalAlign=middle;align=center;" parent="1" vertex="1">
          <mxGeometry x="-590" y="-218" width="100" height="40" as="geometry" />
        </mxCell>
        <mxCell id="BcHQkoFd5CSXZ37SSxC_-4" value="&lt;font style=&quot;font-size: 24px;&quot;&gt;Service Discovery,&amp;nbsp; Балансировщик API Gateway&lt;/font&gt;" style="text;html=1;strokeColor=none;fillColor=none;align=center;verticalAlign=middle;whiteSpace=wrap;rounded=0;" parent="1" vertex="1">
          <mxGeometry x="-795" y="-238" width="490" height="30" as="geometry" />
        </mxCell>
        <mxCell id="BcHQkoFd5CSXZ37SSxC_-5" value="4 вариант схемы" style="text;strokeColor=none;fillColor=none;html=1;fontSize=14;fontStyle=0;verticalAlign=middle;align=center;" parent="1" vertex="1">
          <mxGeometry x="-420" y="-233" width="120" height="40" as="geometry" />
        </mxCell>
        <mxCell id="BcHQkoFd5CSXZ37SSxC_-6" value="регистрация" style="edgeLabel;html=1;align=center;verticalAlign=middle;resizable=0;points=[];" parent="1" vertex="1" connectable="0">
          <mxGeometry x="-479" y="252" as="geometry" />
        </mxCell>
        <mxCell id="BcHQkoFd5CSXZ37SSxC_-10" style="edgeStyle=orthogonalEdgeStyle;rounded=0;orthogonalLoop=1;jettySize=auto;html=1;entryX=0.5;entryY=1;entryDx=0;entryDy=0;" parent="1" source="BcHQkoFd5CSXZ37SSxC_-8" target="fn_h6VyJFIPkfJgqNohM-15" edge="1">
          <mxGeometry relative="1" as="geometry">
            <Array as="points">
              <mxPoint x="-890" y="400" />
              <mxPoint x="-320" y="400" />
            </Array>
          </mxGeometry>
        </mxCell>
        <mxCell id="BcHQkoFd5CSXZ37SSxC_-11" value="регистраци" style="edgeLabel;html=1;align=center;verticalAlign=middle;resizable=0;points=[];" parent="BcHQkoFd5CSXZ37SSxC_-10" vertex="1" connectable="0">
          <mxGeometry x="-0.3789" y="4" relative="1" as="geometry">
            <mxPoint as="offset" />
          </mxGeometry>
        </mxCell>
        <mxCell id="BcHQkoFd5CSXZ37SSxC_-12" style="edgeStyle=orthogonalEdgeStyle;rounded=0;orthogonalLoop=1;jettySize=auto;html=1;dashed=1;" parent="1" source="BcHQkoFd5CSXZ37SSxC_-8" edge="1">
          <mxGeometry relative="1" as="geometry">
            <mxPoint x="270" y="520" as="targetPoint" />
            <Array as="points">
              <mxPoint x="-840" y="370" />
              <mxPoint x="270" y="370" />
            </Array>
          </mxGeometry>
        </mxCell>
        <mxCell id="BcHQkoFd5CSXZ37SSxC_-13" value="запрос к бд" style="edgeLabel;html=1;align=center;verticalAlign=middle;resizable=0;points=[];" parent="BcHQkoFd5CSXZ37SSxC_-12" vertex="1" connectable="0">
          <mxGeometry x="-0.3624" y="-1" relative="1" as="geometry">
            <mxPoint as="offset" />
          </mxGeometry>
        </mxCell>
        <mxCell id="BcHQkoFd5CSXZ37SSxC_-8" value="pymongo-api...N- инстанс" style="rounded=0;whiteSpace=wrap;html=1;" parent="1" vertex="1">
          <mxGeometry x="-990" y="202" width="200" height="120" as="geometry" />
        </mxCell>
        <mxCell id="BcHQkoFd5CSXZ37SSxC_-14" style="edgeStyle=orthogonalEdgeStyle;rounded=0;orthogonalLoop=1;jettySize=auto;html=1;entryX=0.002;entryY=0.687;entryDx=0;entryDy=0;entryPerimeter=0;dashed=1;dashPattern=1 1;" parent="1" source="BcHQkoFd5CSXZ37SSxC_-8" target="xjxATC7eD6JjGwYjVx3A-131" edge="1">
          <mxGeometry relative="1" as="geometry">
            <Array as="points">
              <mxPoint x="-810" y="361" />
            </Array>
          </mxGeometry>
        </mxCell>
        <mxCell id="BcHQkoFd5CSXZ37SSxC_-15" value="запрос в кеш" style="edgeLabel;html=1;align=center;verticalAlign=middle;resizable=0;points=[];" parent="BcHQkoFd5CSXZ37SSxC_-14" vertex="1" connectable="0">
          <mxGeometry x="-0.8619" y="4" relative="1" as="geometry">
            <mxPoint as="offset" />
          </mxGeometry>
        </mxCell>
        <mxCell id="BcHQkoFd5CSXZ37SSxC_-19" value="Text" style="text;html=1;strokeColor=none;fillColor=none;align=center;verticalAlign=middle;whiteSpace=wrap;rounded=0;" parent="1" vertex="1">
          <mxGeometry x="-710" y="380" width="60" height="30" as="geometry" />
        </mxCell>
        <mxCell id="BcHQkoFd5CSXZ37SSxC_-24" style="edgeStyle=orthogonalEdgeStyle;rounded=0;orthogonalLoop=1;jettySize=auto;html=1;entryX=0.5;entryY=0;entryDx=0;entryDy=0;" parent="1" source="BcHQkoFd5CSXZ37SSxC_-22" target="fn_h6VyJFIPkfJgqNohM-30" edge="1">
          <mxGeometry relative="1" as="geometry">
            <Array as="points">
              <mxPoint x="85" y="-40" />
              <mxPoint x="-472" y="-40" />
            </Array>
          </mxGeometry>
        </mxCell>
        <mxCell id="BcHQkoFd5CSXZ37SSxC_-22" value="&lt;font color=&quot;#f7f7f7&quot;&gt;CDN&lt;/font&gt;" style="rounded=1;whiteSpace=wrap;html=1;fillColor=#7880f2;" parent="1" vertex="1">
          <mxGeometry x="-130" y="-595" width="395" height="60" as="geometry" />
        </mxCell>
        <mxCell id="BcHQkoFd5CSXZ37SSxC_-25" value="&lt;font style=&quot;font-size: 48px;&quot;&gt;Регион1&lt;/font&gt;" style="text;html=1;strokeColor=none;fillColor=none;align=center;verticalAlign=middle;whiteSpace=wrap;rounded=0;" parent="1" vertex="1">
          <mxGeometry x="-1040" y="-595" width="60" height="30" as="geometry" />
        </mxCell>
        <mxCell id="BcHQkoFd5CSXZ37SSxC_-28" value="" style="rounded=0;whiteSpace=wrap;html=1;fillColor=#d1d2f5;opacity=20;" parent="1" vertex="1">
          <mxGeometry x="1360" y="-630" width="2280" height="1950" as="geometry" />
        </mxCell>
        <mxCell id="BcHQkoFd5CSXZ37SSxC_-29" value="" style="rounded=1;whiteSpace=wrap;html=1;fontColor=none;noLabel=1;labelBackgroundColor=#fffb85;textOpacity=50;fillStyle=solid;gradientColor=none;gradientDirection=north;fillColor=#eef099;shadow=0;glass=0;opacity=25;" parent="1" vertex="1">
          <mxGeometry x="1440" y="-283" width="842" height="713" as="geometry" />
        </mxCell>
        <mxCell id="BcHQkoFd5CSXZ37SSxC_-30" value="" style="rounded=1;whiteSpace=wrap;html=1;fontColor=none;noLabel=1;labelBackgroundColor=#fffb85;textOpacity=50;fillStyle=solid;gradientColor=none;gradientDirection=north;fillColor=#eef099;shadow=0;glass=0;opacity=45;" parent="1" vertex="1">
          <mxGeometry x="2380" y="650" width="500" height="520" as="geometry" />
        </mxCell>
        <mxCell id="BcHQkoFd5CSXZ37SSxC_-31" value="" style="rounded=1;whiteSpace=wrap;html=1;fontColor=none;noLabel=1;labelBackgroundColor=#fffb85;textOpacity=50;fillStyle=solid;gradientColor=none;gradientDirection=north;fillColor=#eef099;shadow=0;glass=0;opacity=25;" parent="1" vertex="1">
          <mxGeometry x="3082" y="87" width="400" height="370" as="geometry" />
        </mxCell>
        <mxCell id="BcHQkoFd5CSXZ37SSxC_-32" value="" style="rounded=1;whiteSpace=wrap;html=1;fontColor=none;noLabel=1;labelBackgroundColor=#fffb85;textOpacity=50;fillStyle=solid;gradientColor=none;gradientDirection=north;fillColor=#eef099;shadow=0;glass=0;opacity=25;" parent="1" vertex="1">
          <mxGeometry x="2450" y="370" width="580" height="510" as="geometry" />
        </mxCell>
        <mxCell id="BcHQkoFd5CSXZ37SSxC_-33" style="edgeStyle=orthogonalEdgeStyle;rounded=0;orthogonalLoop=1;jettySize=auto;html=1;startArrow=classic;startFill=1;" parent="1" source="BcHQkoFd5CSXZ37SSxC_-34" target="BcHQkoFd5CSXZ37SSxC_-31" edge="1">
          <mxGeometry relative="1" as="geometry" />
        </mxCell>
        <mxCell id="BcHQkoFd5CSXZ37SSxC_-34" value="pymongo-api" style="rounded=1;whiteSpace=wrap;html=1;" parent="1" vertex="1">
          <mxGeometry x="2610" y="182" width="120" height="60" as="geometry" />
        </mxCell>
        <mxCell id="BcHQkoFd5CSXZ37SSxC_-35" style="edgeStyle=orthogonalEdgeStyle;rounded=0;orthogonalLoop=1;jettySize=auto;html=1;exitX=1;exitY=0.5;exitDx=0;exitDy=0;startArrow=classic;startFill=1;" parent="1" source="BcHQkoFd5CSXZ37SSxC_-34" target="BcHQkoFd5CSXZ37SSxC_-40" edge="1">
          <mxGeometry relative="1" as="geometry">
            <mxPoint x="3040" y="300" as="targetPoint" />
          </mxGeometry>
        </mxCell>
        <mxCell id="BcHQkoFd5CSXZ37SSxC_-36" value="2) Запрос к БД" style="edgeLabel;html=1;align=center;verticalAlign=middle;resizable=0;points=[];" parent="BcHQkoFd5CSXZ37SSxC_-35" vertex="1" connectable="0">
          <mxGeometry x="-0.2448" relative="1" as="geometry">
            <mxPoint as="offset" />
          </mxGeometry>
        </mxCell>
        <mxCell id="BcHQkoFd5CSXZ37SSxC_-37" value="" style="edgeStyle=orthogonalEdgeStyle;rounded=0;orthogonalLoop=1;jettySize=auto;html=1;" parent="1" source="BcHQkoFd5CSXZ37SSxC_-40" target="BcHQkoFd5CSXZ37SSxC_-41" edge="1">
          <mxGeometry relative="1" as="geometry" />
        </mxCell>
        <mxCell id="BcHQkoFd5CSXZ37SSxC_-38" value="" style="edgeStyle=orthogonalEdgeStyle;rounded=0;orthogonalLoop=1;jettySize=auto;html=1;" parent="1" source="BcHQkoFd5CSXZ37SSxC_-40" target="BcHQkoFd5CSXZ37SSxC_-42" edge="1">
          <mxGeometry relative="1" as="geometry" />
        </mxCell>
        <mxCell id="BcHQkoFd5CSXZ37SSxC_-39" value="" style="edgeStyle=orthogonalEdgeStyle;rounded=0;orthogonalLoop=1;jettySize=auto;html=1;entryX=0;entryY=0.5;entryDx=0;entryDy=0;" parent="1" source="BcHQkoFd5CSXZ37SSxC_-40" target="BcHQkoFd5CSXZ37SSxC_-43" edge="1">
          <mxGeometry relative="1" as="geometry" />
        </mxCell>
        <mxCell id="BcHQkoFd5CSXZ37SSxC_-40" value="&lt;b&gt;Роутер&lt;/b&gt;" style="rounded=1;whiteSpace=wrap;html=1;fillColor=#b1ddf0;strokeColor=#10739e;" parent="1" vertex="1">
          <mxGeometry x="2690" y="500" width="120" height="60" as="geometry" />
        </mxCell>
        <mxCell id="BcHQkoFd5CSXZ37SSxC_-41" value="Шард1" style="rounded=1;whiteSpace=wrap;html=1;fillColor=#b1ddf0;strokeColor=#10739e;" parent="1" vertex="1">
          <mxGeometry x="2550" y="620" width="120" height="30" as="geometry" />
        </mxCell>
        <mxCell id="BcHQkoFd5CSXZ37SSxC_-42" value="Шард2" style="rounded=1;whiteSpace=wrap;html=1;fillColor=#b1ddf0;strokeColor=#10739e;" parent="1" vertex="1">
          <mxGeometry x="2690" y="620" width="120" height="30" as="geometry" />
        </mxCell>
        <mxCell id="BcHQkoFd5CSXZ37SSxC_-43" value="&lt;b&gt;Конфигурационный сервер&lt;/b&gt;" style="rounded=1;whiteSpace=wrap;html=1;fillColor=#fad7ac;strokeColor=#b46504;" parent="1" vertex="1">
          <mxGeometry x="2880" y="500" width="120" height="60" as="geometry" />
        </mxCell>
        <mxCell id="BcHQkoFd5CSXZ37SSxC_-44" value="Replicaset" style="text;html=1;strokeColor=none;fillColor=none;align=center;verticalAlign=middle;whiteSpace=wrap;rounded=0;" parent="1" vertex="1">
          <mxGeometry x="2490" y="590" width="60" height="30" as="geometry" />
        </mxCell>
        <mxCell id="BcHQkoFd5CSXZ37SSxC_-45" value="Шардирование&amp;nbsp;&lt;br&gt;MongoDB" style="text;strokeColor=none;fillColor=none;html=1;fontSize=24;fontStyle=1;verticalAlign=middle;align=center;" parent="1" vertex="1">
          <mxGeometry x="2505" y="399" width="100" height="40" as="geometry" />
        </mxCell>
        <mxCell id="BcHQkoFd5CSXZ37SSxC_-46" value="" style="shape=cylinder3;whiteSpace=wrap;html=1;boundedLbl=1;backgroundOutline=1;size=15;shadow=1;fillStyle=hatch;movable=1;resizable=1;rotatable=1;deletable=1;editable=1;locked=0;connectable=1;fillColor=#99FFFF;" parent="1" vertex="1">
          <mxGeometry x="2525" y="690" width="60" height="40" as="geometry" />
        </mxCell>
        <mxCell id="BcHQkoFd5CSXZ37SSxC_-47" value="" style="group" parent="1" vertex="1" connectable="0">
          <mxGeometry x="2460" y="780" width="80" height="60" as="geometry" />
        </mxCell>
        <mxCell id="BcHQkoFd5CSXZ37SSxC_-48" value="" style="shape=cylinder3;whiteSpace=wrap;html=1;boundedLbl=1;backgroundOutline=1;size=15;fillStyle=solid;shadow=1;" parent="BcHQkoFd5CSXZ37SSxC_-47" vertex="1">
          <mxGeometry y="20" width="60" height="40" as="geometry" />
        </mxCell>
        <mxCell id="BcHQkoFd5CSXZ37SSxC_-49" value="" style="shape=cylinder3;whiteSpace=wrap;html=1;boundedLbl=1;backgroundOutline=1;size=15;fillStyle=solid;shadow=1;" parent="BcHQkoFd5CSXZ37SSxC_-47" vertex="1">
          <mxGeometry width="60" height="40" as="geometry" />
        </mxCell>
        <mxCell id="BcHQkoFd5CSXZ37SSxC_-50" value="S" style="text;strokeColor=none;fillColor=none;html=1;fontSize=24;fontStyle=1;verticalAlign=middle;align=center;" parent="BcHQkoFd5CSXZ37SSxC_-47" vertex="1">
          <mxGeometry x="-20" y="-20" width="100" height="40" as="geometry" />
        </mxCell>
        <mxCell id="BcHQkoFd5CSXZ37SSxC_-51" value="" style="shape=cylinder3;whiteSpace=wrap;html=1;boundedLbl=1;backgroundOutline=1;size=15;fillStyle=solid;shadow=1;" parent="1" vertex="1">
          <mxGeometry x="2460" y="910" width="60" height="40" as="geometry" />
        </mxCell>
        <mxCell id="BcHQkoFd5CSXZ37SSxC_-52" style="edgeStyle=orthogonalEdgeStyle;rounded=0;orthogonalLoop=1;jettySize=auto;html=1;startArrow=classic;startFill=1;strokeColor=#64ff00;" parent="1" source="BcHQkoFd5CSXZ37SSxC_-54" target="BcHQkoFd5CSXZ37SSxC_-62" edge="1">
          <mxGeometry relative="1" as="geometry" />
        </mxCell>
        <mxCell id="BcHQkoFd5CSXZ37SSxC_-53" value="heartbeat" style="edgeLabel;html=1;align=center;verticalAlign=middle;resizable=0;points=[];" parent="BcHQkoFd5CSXZ37SSxC_-52" vertex="1" connectable="0">
          <mxGeometry x="0.0267" y="2" relative="1" as="geometry">
            <mxPoint as="offset" />
          </mxGeometry>
        </mxCell>
        <mxCell id="BcHQkoFd5CSXZ37SSxC_-54" value="" style="shape=cylinder3;whiteSpace=wrap;html=1;boundedLbl=1;backgroundOutline=1;size=15;fillStyle=solid;shadow=1;" parent="1" vertex="1">
          <mxGeometry x="2460" y="890" width="60" height="40" as="geometry" />
        </mxCell>
        <mxCell id="BcHQkoFd5CSXZ37SSxC_-55" style="edgeStyle=orthogonalEdgeStyle;rounded=0;orthogonalLoop=1;jettySize=auto;html=1;exitX=0.855;exitY=1;exitDx=0;exitDy=-4.35;exitPerimeter=0;entryX=0.5;entryY=1;entryDx=0;entryDy=0;entryPerimeter=0;endArrow=classic;endFill=1;startArrow=classic;startFill=1;curved=1;" parent="1" source="BcHQkoFd5CSXZ37SSxC_-49" target="BcHQkoFd5CSXZ37SSxC_-46" edge="1">
          <mxGeometry relative="1" as="geometry" />
        </mxCell>
        <mxCell id="BcHQkoFd5CSXZ37SSxC_-56" style="edgeStyle=orthogonalEdgeStyle;rounded=0;orthogonalLoop=1;jettySize=auto;html=1;curved=1;startArrow=classic;startFill=1;" parent="1" source="BcHQkoFd5CSXZ37SSxC_-51" target="BcHQkoFd5CSXZ37SSxC_-46" edge="1">
          <mxGeometry relative="1" as="geometry" />
        </mxCell>
        <mxCell id="BcHQkoFd5CSXZ37SSxC_-57" style="edgeStyle=orthogonalEdgeStyle;rounded=0;orthogonalLoop=1;jettySize=auto;html=1;fillColor=#0050ef;strokeColor=#001DBC;entryX=0;entryY=0;entryDx=0;entryDy=15;entryPerimeter=0;" parent="1" source="BcHQkoFd5CSXZ37SSxC_-46" target="BcHQkoFd5CSXZ37SSxC_-51" edge="1">
          <mxGeometry relative="1" as="geometry">
            <mxPoint x="2700" y="760" as="targetPoint" />
          </mxGeometry>
        </mxCell>
        <mxCell id="BcHQkoFd5CSXZ37SSxC_-58" style="edgeStyle=orthogonalEdgeStyle;rounded=0;orthogonalLoop=1;jettySize=auto;html=1;fillColor=#0050ef;strokeColor=#001DBC;entryX=0;entryY=0;entryDx=0;entryDy=15;entryPerimeter=0;" parent="1" source="BcHQkoFd5CSXZ37SSxC_-46" target="BcHQkoFd5CSXZ37SSxC_-48" edge="1">
          <mxGeometry relative="1" as="geometry">
            <Array as="points">
              <mxPoint x="2440" y="710" />
              <mxPoint x="2440" y="815" />
            </Array>
          </mxGeometry>
        </mxCell>
        <mxCell id="BcHQkoFd5CSXZ37SSxC_-59" value="репликация" style="edgeLabel;html=1;align=center;verticalAlign=middle;resizable=0;points=[];" parent="BcHQkoFd5CSXZ37SSxC_-58" vertex="1" connectable="0">
          <mxGeometry x="-0.1744" y="-1" relative="1" as="geometry">
            <mxPoint as="offset" />
          </mxGeometry>
        </mxCell>
        <mxCell id="BcHQkoFd5CSXZ37SSxC_-60" value="" style="shape=cylinder3;whiteSpace=wrap;html=1;boundedLbl=1;backgroundOutline=1;size=15;fillStyle=solid;shadow=1;" parent="1" vertex="1">
          <mxGeometry x="2460" y="1010" width="60" height="40" as="geometry" />
        </mxCell>
        <mxCell id="BcHQkoFd5CSXZ37SSxC_-61" style="edgeStyle=orthogonalEdgeStyle;rounded=0;orthogonalLoop=1;jettySize=auto;html=1;curved=1;entryX=0.5;entryY=1;entryDx=0;entryDy=0;entryPerimeter=0;startArrow=classic;startFill=1;" parent="1" source="BcHQkoFd5CSXZ37SSxC_-62" target="BcHQkoFd5CSXZ37SSxC_-46" edge="1">
          <mxGeometry relative="1" as="geometry">
            <mxPoint x="2600" y="740.0000000000002" as="targetPoint" />
            <Array as="points">
              <mxPoint x="2600" y="1020" />
            </Array>
          </mxGeometry>
        </mxCell>
        <mxCell id="BcHQkoFd5CSXZ37SSxC_-62" value="" style="shape=cylinder3;whiteSpace=wrap;html=1;boundedLbl=1;backgroundOutline=1;size=15;fillStyle=solid;shadow=1;" parent="1" vertex="1">
          <mxGeometry x="2460" y="1000" width="60" height="40" as="geometry" />
        </mxCell>
        <mxCell id="BcHQkoFd5CSXZ37SSxC_-63" style="edgeStyle=orthogonalEdgeStyle;rounded=0;orthogonalLoop=1;jettySize=auto;html=1;fillColor=#0050ef;strokeColor=#001DBC;exitX=0;exitY=0.5;exitDx=0;exitDy=0;exitPerimeter=0;entryX=0;entryY=1;entryDx=0;entryDy=-15;entryPerimeter=0;" parent="1" source="BcHQkoFd5CSXZ37SSxC_-46" target="BcHQkoFd5CSXZ37SSxC_-62" edge="1">
          <mxGeometry relative="1" as="geometry">
            <mxPoint x="2840" y="760" as="targetPoint" />
            <mxPoint x="2669.52" y="700.0000000000002" as="sourcePoint" />
            <Array as="points">
              <mxPoint x="2440" y="710" />
              <mxPoint x="2440" y="1025" />
            </Array>
          </mxGeometry>
        </mxCell>
        <mxCell id="BcHQkoFd5CSXZ37SSxC_-72" value="" style="group;fillColor=default;strokeColor=#0896e7;fontColor=#ffffff;gradientColor=none;fillStyle=auto;" parent="1" vertex="1" connectable="0">
          <mxGeometry x="3152" y="192" width="60" height="60" as="geometry" />
        </mxCell>
        <mxCell id="BcHQkoFd5CSXZ37SSxC_-73" value="" style="shape=cylinder3;whiteSpace=wrap;html=1;boundedLbl=1;backgroundOutline=1;size=15;fixDash=0;container=0;dropTarget=0;movable=1;resizable=1;rotatable=1;deletable=1;editable=1;locked=0;connectable=1;fillColor=default;" parent="BcHQkoFd5CSXZ37SSxC_-72" vertex="1">
          <mxGeometry width="60" height="40" as="geometry" />
        </mxCell>
        <mxCell id="BcHQkoFd5CSXZ37SSxC_-74" value="" style="shape=cylinder3;whiteSpace=wrap;html=1;boundedLbl=1;backgroundOutline=1;size=15;shadow=1;fillStyle=hatch;movable=1;resizable=1;rotatable=1;deletable=1;editable=1;locked=0;connectable=1;fillColor=#99FFFF;" parent="BcHQkoFd5CSXZ37SSxC_-72" vertex="1">
          <mxGeometry y="20" width="60" height="40" as="geometry" />
        </mxCell>
        <mxCell id="BcHQkoFd5CSXZ37SSxC_-90" value="Кеширование в Redis" style="text;strokeColor=none;fillColor=none;html=1;fontSize=24;fontStyle=1;verticalAlign=middle;align=center;" parent="1" vertex="1">
          <mxGeometry x="3172" y="97" width="100" height="40" as="geometry" />
        </mxCell>
        <mxCell id="BcHQkoFd5CSXZ37SSxC_-91" value="M1" style="text;strokeColor=none;fillColor=none;html=1;fontSize=24;fontStyle=1;verticalAlign=middle;align=center;" parent="1" vertex="1">
          <mxGeometry x="3132" y="172" width="100" height="40" as="geometry" />
        </mxCell>
        <mxCell id="BcHQkoFd5CSXZ37SSxC_-92" value="3 вариант схемы" style="text;strokeColor=none;fillColor=none;html=1;fontSize=14;fontStyle=0;verticalAlign=middle;align=center;" parent="1" vertex="1">
          <mxGeometry x="3319" y="80" width="100" height="40" as="geometry" />
        </mxCell>
        <mxCell id="BcHQkoFd5CSXZ37SSxC_-93" value="1 вариант схемы" style="text;strokeColor=none;fillColor=none;html=1;fontSize=14;fontStyle=0;verticalAlign=middle;align=center;" parent="1" vertex="1">
          <mxGeometry x="2587" y="368" width="100" height="40" as="geometry" />
        </mxCell>
        <mxCell id="BcHQkoFd5CSXZ37SSxC_-94" value="Репликация&lt;br style=&quot;border-color: var(--border-color);&quot;&gt;&amp;nbsp;MongoDB" style="text;strokeColor=none;fillColor=none;html=1;fontSize=24;fontStyle=1;verticalAlign=middle;align=center;" parent="1" vertex="1">
          <mxGeometry x="2670" y="1121" width="100" height="35" as="geometry" />
        </mxCell>
        <mxCell id="BcHQkoFd5CSXZ37SSxC_-95" value="2 вариант схемы" style="text;strokeColor=none;fillColor=none;html=1;fontSize=14;fontStyle=0;verticalAlign=middle;align=center;" parent="1" vertex="1">
          <mxGeometry x="2760" y="1090" width="100" height="40" as="geometry" />
        </mxCell>
        <mxCell id="BcHQkoFd5CSXZ37SSxC_-96" style="edgeStyle=orthogonalEdgeStyle;rounded=0;orthogonalLoop=1;jettySize=auto;html=1;entryX=0.5;entryY=0;entryDx=0;entryDy=0;entryPerimeter=0;startArrow=classic;startFill=1;strokeColor=#6dee53;" parent="1" source="BcHQkoFd5CSXZ37SSxC_-49" target="BcHQkoFd5CSXZ37SSxC_-54" edge="1">
          <mxGeometry relative="1" as="geometry" />
        </mxCell>
        <mxCell id="BcHQkoFd5CSXZ37SSxC_-97" value="heartbeat" style="edgeLabel;html=1;align=center;verticalAlign=middle;resizable=0;points=[];" parent="BcHQkoFd5CSXZ37SSxC_-96" vertex="1" connectable="0">
          <mxGeometry x="0.0148" relative="1" as="geometry">
            <mxPoint as="offset" />
          </mxGeometry>
        </mxCell>
        <mxCell id="BcHQkoFd5CSXZ37SSxC_-98" value="" style="shape=cylinder3;whiteSpace=wrap;html=1;boundedLbl=1;backgroundOutline=1;size=15;fixDash=0;container=0;dropTarget=0;movable=1;resizable=1;rotatable=1;deletable=1;editable=1;locked=0;connectable=1;fillColor=default;" parent="1" vertex="1">
          <mxGeometry x="2525" y="672" width="60" height="40" as="geometry" />
        </mxCell>
        <mxCell id="BcHQkoFd5CSXZ37SSxC_-99" value="M" style="text;strokeColor=none;fillColor=none;html=1;fontSize=24;fontStyle=1;verticalAlign=middle;align=center;" parent="1" vertex="1">
          <mxGeometry x="2505" y="660" width="100" height="40" as="geometry" />
        </mxCell>
        <mxCell id="BcHQkoFd5CSXZ37SSxC_-100" value="" style="shape=cylinder3;whiteSpace=wrap;html=1;boundedLbl=1;backgroundOutline=1;size=15;shadow=1;fillStyle=hatch;movable=1;resizable=1;rotatable=1;deletable=1;editable=1;locked=0;connectable=1;fillColor=#99FFFF;" parent="1" vertex="1">
          <mxGeometry x="2700" y="678" width="60" height="40" as="geometry" />
        </mxCell>
        <mxCell id="BcHQkoFd5CSXZ37SSxC_-101" value="" style="group" parent="1" vertex="1" connectable="0">
          <mxGeometry x="2779.95" y="770" width="80" height="60" as="geometry" />
        </mxCell>
        <mxCell id="BcHQkoFd5CSXZ37SSxC_-102" value="" style="shape=cylinder3;whiteSpace=wrap;html=1;boundedLbl=1;backgroundOutline=1;size=15;fillStyle=solid;shadow=1;" parent="BcHQkoFd5CSXZ37SSxC_-101" vertex="1">
          <mxGeometry y="20" width="60" height="40" as="geometry" />
        </mxCell>
        <mxCell id="BcHQkoFd5CSXZ37SSxC_-103" value="" style="shape=cylinder3;whiteSpace=wrap;html=1;boundedLbl=1;backgroundOutline=1;size=15;fillStyle=solid;shadow=1;" parent="BcHQkoFd5CSXZ37SSxC_-101" vertex="1">
          <mxGeometry width="60" height="40" as="geometry" />
        </mxCell>
        <mxCell id="BcHQkoFd5CSXZ37SSxC_-104" value="S" style="text;strokeColor=none;fillColor=none;html=1;fontSize=24;fontStyle=1;verticalAlign=middle;align=center;" parent="BcHQkoFd5CSXZ37SSxC_-101" vertex="1">
          <mxGeometry x="-20" y="-20" width="100" height="40" as="geometry" />
        </mxCell>
        <mxCell id="BcHQkoFd5CSXZ37SSxC_-105" value="" style="shape=cylinder3;whiteSpace=wrap;html=1;boundedLbl=1;backgroundOutline=1;size=15;fillStyle=solid;shadow=1;" parent="1" vertex="1">
          <mxGeometry x="2779.95" y="900" width="60" height="40" as="geometry" />
        </mxCell>
        <mxCell id="BcHQkoFd5CSXZ37SSxC_-106" style="edgeStyle=orthogonalEdgeStyle;rounded=0;orthogonalLoop=1;jettySize=auto;html=1;startArrow=classic;startFill=1;strokeColor=#52ff86;" parent="1" target="BcHQkoFd5CSXZ37SSxC_-113" edge="1">
          <mxGeometry relative="1" as="geometry">
            <mxPoint x="2810" y="939" as="sourcePoint" />
          </mxGeometry>
        </mxCell>
        <mxCell id="BcHQkoFd5CSXZ37SSxC_-107" value="heartbeat" style="edgeLabel;html=1;align=center;verticalAlign=middle;resizable=0;points=[];" parent="BcHQkoFd5CSXZ37SSxC_-106" vertex="1" connectable="0">
          <mxGeometry x="0.0267" y="2" relative="1" as="geometry">
            <mxPoint as="offset" />
          </mxGeometry>
        </mxCell>
        <mxCell id="BcHQkoFd5CSXZ37SSxC_-108" value="" style="shape=cylinder3;whiteSpace=wrap;html=1;boundedLbl=1;backgroundOutline=1;size=15;fillStyle=solid;shadow=1;" parent="1" vertex="1">
          <mxGeometry x="2779.95" y="880" width="60" height="40" as="geometry" />
        </mxCell>
        <mxCell id="BcHQkoFd5CSXZ37SSxC_-109" style="edgeStyle=orthogonalEdgeStyle;rounded=0;orthogonalLoop=1;jettySize=auto;html=1;exitX=0;exitY=0;exitDx=0;exitDy=17.5;exitPerimeter=0;entryX=0.5;entryY=1;entryDx=0;entryDy=0;entryPerimeter=0;endArrow=classic;endFill=1;startArrow=classic;startFill=1;curved=1;" parent="1" source="BcHQkoFd5CSXZ37SSxC_-102" target="BcHQkoFd5CSXZ37SSxC_-100" edge="1">
          <mxGeometry relative="1" as="geometry" />
        </mxCell>
        <mxCell id="BcHQkoFd5CSXZ37SSxC_-110" style="edgeStyle=orthogonalEdgeStyle;rounded=0;orthogonalLoop=1;jettySize=auto;html=1;curved=1;startArrow=classic;startFill=1;" parent="1" source="BcHQkoFd5CSXZ37SSxC_-105" target="BcHQkoFd5CSXZ37SSxC_-100" edge="1">
          <mxGeometry relative="1" as="geometry" />
        </mxCell>
        <mxCell id="BcHQkoFd5CSXZ37SSxC_-111" value="" style="shape=cylinder3;whiteSpace=wrap;html=1;boundedLbl=1;backgroundOutline=1;size=15;fillStyle=solid;shadow=1;" parent="1" vertex="1">
          <mxGeometry x="2779.95" y="1000" width="60" height="40" as="geometry" />
        </mxCell>
        <mxCell id="BcHQkoFd5CSXZ37SSxC_-112" style="edgeStyle=orthogonalEdgeStyle;rounded=0;orthogonalLoop=1;jettySize=auto;html=1;curved=1;entryX=0.5;entryY=1;entryDx=0;entryDy=0;entryPerimeter=0;startArrow=classic;startFill=1;" parent="1" source="BcHQkoFd5CSXZ37SSxC_-113" target="BcHQkoFd5CSXZ37SSxC_-100" edge="1">
          <mxGeometry relative="1" as="geometry">
            <mxPoint x="2919.95" y="730.0000000000002" as="targetPoint" />
            <Array as="points">
              <mxPoint x="2720" y="1010" />
              <mxPoint x="2720" y="718" />
            </Array>
          </mxGeometry>
        </mxCell>
        <mxCell id="BcHQkoFd5CSXZ37SSxC_-113" value="" style="shape=cylinder3;whiteSpace=wrap;html=1;boundedLbl=1;backgroundOutline=1;size=15;fillStyle=solid;shadow=1;" parent="1" vertex="1">
          <mxGeometry x="2779.95" y="990" width="60" height="40" as="geometry" />
        </mxCell>
        <mxCell id="BcHQkoFd5CSXZ37SSxC_-114" style="edgeStyle=orthogonalEdgeStyle;rounded=0;orthogonalLoop=1;jettySize=auto;html=1;entryX=0.5;entryY=0;entryDx=0;entryDy=0;entryPerimeter=0;startArrow=classic;startFill=1;strokeColor=#64ff00;" parent="1" target="BcHQkoFd5CSXZ37SSxC_-108" edge="1">
          <mxGeometry relative="1" as="geometry">
            <mxPoint x="2810" y="829" as="sourcePoint" />
          </mxGeometry>
        </mxCell>
        <mxCell id="BcHQkoFd5CSXZ37SSxC_-115" value="heartbeat" style="edgeLabel;html=1;align=center;verticalAlign=middle;resizable=0;points=[];" parent="BcHQkoFd5CSXZ37SSxC_-114" vertex="1" connectable="0">
          <mxGeometry x="0.0148" relative="1" as="geometry">
            <mxPoint as="offset" />
          </mxGeometry>
        </mxCell>
        <mxCell id="BcHQkoFd5CSXZ37SSxC_-116" value="" style="shape=cylinder3;whiteSpace=wrap;html=1;boundedLbl=1;backgroundOutline=1;size=15;fixDash=0;container=0;dropTarget=0;movable=1;resizable=1;rotatable=1;deletable=1;editable=1;locked=0;connectable=1;fillColor=default;" parent="1" vertex="1">
          <mxGeometry x="2700" y="660" width="60" height="40" as="geometry" />
        </mxCell>
        <mxCell id="BcHQkoFd5CSXZ37SSxC_-117" value="M" style="text;strokeColor=none;fillColor=none;html=1;fontSize=24;fontStyle=1;verticalAlign=middle;align=center;" parent="1" vertex="1">
          <mxGeometry x="2680" y="650" width="100" height="40" as="geometry" />
        </mxCell>
        <mxCell id="BcHQkoFd5CSXZ37SSxC_-118" style="edgeStyle=orthogonalEdgeStyle;rounded=0;orthogonalLoop=1;jettySize=auto;html=1;entryX=1;entryY=0.5;entryDx=0;entryDy=0;entryPerimeter=0;" parent="1" source="BcHQkoFd5CSXZ37SSxC_-100" target="BcHQkoFd5CSXZ37SSxC_-102" edge="1">
          <mxGeometry relative="1" as="geometry" />
        </mxCell>
        <mxCell id="BcHQkoFd5CSXZ37SSxC_-119" style="edgeStyle=orthogonalEdgeStyle;rounded=0;orthogonalLoop=1;jettySize=auto;html=1;entryX=1;entryY=0.5;entryDx=0;entryDy=0;entryPerimeter=0;" parent="1" source="BcHQkoFd5CSXZ37SSxC_-100" target="BcHQkoFd5CSXZ37SSxC_-105" edge="1">
          <mxGeometry relative="1" as="geometry" />
        </mxCell>
        <mxCell id="BcHQkoFd5CSXZ37SSxC_-120" style="edgeStyle=orthogonalEdgeStyle;rounded=0;orthogonalLoop=1;jettySize=auto;html=1;entryX=1;entryY=0.5;entryDx=0;entryDy=0;entryPerimeter=0;strokeColor=#3a30c5;" parent="1" source="BcHQkoFd5CSXZ37SSxC_-100" target="BcHQkoFd5CSXZ37SSxC_-111" edge="1">
          <mxGeometry relative="1" as="geometry" />
        </mxCell>
        <mxCell id="BcHQkoFd5CSXZ37SSxC_-121" value="репликация" style="edgeLabel;html=1;align=center;verticalAlign=middle;resizable=0;points=[];" parent="BcHQkoFd5CSXZ37SSxC_-120" vertex="1" connectable="0">
          <mxGeometry x="-0.8115" y="2" relative="1" as="geometry">
            <mxPoint as="offset" />
          </mxGeometry>
        </mxCell>
        <mxCell id="BcHQkoFd5CSXZ37SSxC_-122" value="S" style="text;strokeColor=none;fillColor=none;html=1;fontSize=24;fontStyle=1;verticalAlign=middle;align=center;" parent="1" vertex="1">
          <mxGeometry x="2759.95" y="869" width="100" height="40" as="geometry" />
        </mxCell>
        <mxCell id="BcHQkoFd5CSXZ37SSxC_-123" value="S" style="text;strokeColor=none;fillColor=none;html=1;fontSize=24;fontStyle=1;verticalAlign=middle;align=center;" parent="1" vertex="1">
          <mxGeometry x="2759.95" y="979" width="100" height="40" as="geometry" />
        </mxCell>
        <mxCell id="BcHQkoFd5CSXZ37SSxC_-124" value="S" style="text;strokeColor=none;fillColor=none;html=1;fontSize=24;fontStyle=1;verticalAlign=middle;align=center;" parent="1" vertex="1">
          <mxGeometry x="2440" y="880" width="100" height="40" as="geometry" />
        </mxCell>
        <mxCell id="BcHQkoFd5CSXZ37SSxC_-125" value="S" style="text;strokeColor=none;fillColor=none;html=1;fontSize=24;fontStyle=1;verticalAlign=middle;align=center;" parent="1" vertex="1">
          <mxGeometry x="2440" y="990" width="100" height="40" as="geometry" />
        </mxCell>
        <mxCell id="BcHQkoFd5CSXZ37SSxC_-126" style="edgeStyle=orthogonalEdgeStyle;rounded=0;orthogonalLoop=1;jettySize=auto;html=1;entryX=0;entryY=0.5;entryDx=0;entryDy=0;" parent="1" source="BcHQkoFd5CSXZ37SSxC_-127" target="BcHQkoFd5CSXZ37SSxC_-162" edge="1">
          <mxGeometry relative="1" as="geometry">
            <mxPoint x="2010" y="-22" as="targetPoint" />
            <Array as="points">
              <mxPoint x="2017" y="-590" />
              <mxPoint x="2505" y="-590" />
            </Array>
          </mxGeometry>
        </mxCell>
        <mxCell id="BcHQkoFd5CSXZ37SSxC_-127" value="" style="rounded=1;whiteSpace=wrap;html=1;fillColor=#fd96ef;" parent="1" vertex="1">
          <mxGeometry x="1896" y="-460" width="241" height="110" as="geometry" />
        </mxCell>
        <mxCell id="BcHQkoFd5CSXZ37SSxC_-128" value="" style="shape=actor;whiteSpace=wrap;html=1;" parent="1" vertex="1">
          <mxGeometry x="1935" y="-450" width="76" height="60" as="geometry" />
        </mxCell>
        <mxCell id="BcHQkoFd5CSXZ37SSxC_-129" value="" style="shape=actor;whiteSpace=wrap;html=1;" parent="1" vertex="1">
          <mxGeometry x="2007" y="-450" width="60" height="60" as="geometry" />
        </mxCell>
        <mxCell id="BcHQkoFd5CSXZ37SSxC_-130" value="" style="shape=actor;whiteSpace=wrap;html=1;" parent="1" vertex="1">
          <mxGeometry x="1987" y="-420" width="54" height="60" as="geometry" />
        </mxCell>
        <mxCell id="BcHQkoFd5CSXZ37SSxC_-131" style="edgeStyle=orthogonalEdgeStyle;rounded=0;orthogonalLoop=1;jettySize=auto;html=1;" parent="1" source="BcHQkoFd5CSXZ37SSxC_-132" target="BcHQkoFd5CSXZ37SSxC_-157" edge="1">
          <mxGeometry relative="1" as="geometry">
            <Array as="points">
              <mxPoint x="1834" y="155" />
              <mxPoint x="1590" y="155" />
            </Array>
          </mxGeometry>
        </mxCell>
        <mxCell id="BcHQkoFd5CSXZ37SSxC_-132" value="&lt;font size=&quot;1&quot;&gt;APISIX Gateway&lt;/font&gt;" style="rounded=0;whiteSpace=wrap;html=1;" parent="1" vertex="1">
          <mxGeometry x="1774" y="77" width="120" height="60" as="geometry" />
        </mxCell>
        <mxCell id="BcHQkoFd5CSXZ37SSxC_-133" style="edgeStyle=orthogonalEdgeStyle;rounded=0;orthogonalLoop=1;jettySize=auto;html=1;entryX=0;entryY=0.5;entryDx=0;entryDy=0;" parent="1" source="BcHQkoFd5CSXZ37SSxC_-135" target="BcHQkoFd5CSXZ37SSxC_-136" edge="1">
          <mxGeometry relative="1" as="geometry" />
        </mxCell>
        <mxCell id="BcHQkoFd5CSXZ37SSxC_-134" value="Получить список сервисов" style="edgeLabel;html=1;align=center;verticalAlign=middle;resizable=0;points=[];" parent="BcHQkoFd5CSXZ37SSxC_-133" vertex="1" connectable="0">
          <mxGeometry x="-0.3034" y="2" relative="1" as="geometry">
            <mxPoint x="14" y="2" as="offset" />
          </mxGeometry>
        </mxCell>
        <mxCell id="BcHQkoFd5CSXZ37SSxC_-135" value="consul_kv" style="rounded=1;whiteSpace=wrap;html=1;" parent="1" vertex="1">
          <mxGeometry x="1874" y="92" width="56" height="30" as="geometry" />
        </mxCell>
        <mxCell id="BcHQkoFd5CSXZ37SSxC_-136" value="Consul" style="rounded=0;whiteSpace=wrap;html=1;" parent="1" vertex="1">
          <mxGeometry x="2100" y="77" width="120" height="60" as="geometry" />
        </mxCell>
        <mxCell id="BcHQkoFd5CSXZ37SSxC_-137" style="edgeStyle=orthogonalEdgeStyle;rounded=0;orthogonalLoop=1;jettySize=auto;html=1;" parent="1" source="BcHQkoFd5CSXZ37SSxC_-141" target="BcHQkoFd5CSXZ37SSxC_-136" edge="1">
          <mxGeometry relative="1" as="geometry" />
        </mxCell>
        <mxCell id="BcHQkoFd5CSXZ37SSxC_-138" value="регистрация" style="edgeLabel;html=1;align=center;verticalAlign=middle;resizable=0;points=[];" parent="BcHQkoFd5CSXZ37SSxC_-137" vertex="1" connectable="0">
          <mxGeometry x="0.2807" y="2" relative="1" as="geometry">
            <mxPoint x="235" y="-65" as="offset" />
          </mxGeometry>
        </mxCell>
        <mxCell id="BcHQkoFd5CSXZ37SSxC_-139" style="edgeStyle=orthogonalEdgeStyle;rounded=0;orthogonalLoop=1;jettySize=auto;html=1;dashed=1;dashPattern=1 1;" parent="1" source="BcHQkoFd5CSXZ37SSxC_-141" edge="1">
          <mxGeometry relative="1" as="geometry">
            <mxPoint x="3083" y="300" as="targetPoint" />
            <Array as="points">
              <mxPoint x="1840" y="300" />
              <mxPoint x="3083" y="300" />
            </Array>
          </mxGeometry>
        </mxCell>
        <mxCell id="BcHQkoFd5CSXZ37SSxC_-140" value="запрос в кеш" style="edgeLabel;html=1;align=center;verticalAlign=middle;resizable=0;points=[];" parent="BcHQkoFd5CSXZ37SSxC_-139" vertex="1" connectable="0">
          <mxGeometry x="-0.6734" y="1" relative="1" as="geometry">
            <mxPoint as="offset" />
          </mxGeometry>
        </mxCell>
        <mxCell id="BcHQkoFd5CSXZ37SSxC_-141" value="pymongo-api(2 инстанс)" style="rounded=0;whiteSpace=wrap;html=1;" parent="1" vertex="1">
          <mxGeometry x="1740" y="177" width="200" height="120" as="geometry" />
        </mxCell>
        <mxCell id="BcHQkoFd5CSXZ37SSxC_-142" style="edgeStyle=orthogonalEdgeStyle;rounded=0;orthogonalLoop=1;jettySize=auto;html=1;exitX=0.5;exitY=0;exitDx=0;exitDy=0;" parent="1" source="BcHQkoFd5CSXZ37SSxC_-34" edge="1">
          <mxGeometry relative="1" as="geometry">
            <mxPoint x="2160" y="147" as="targetPoint" />
            <mxPoint x="2165" y="227" as="sourcePoint" />
            <Array as="points">
              <mxPoint x="2670" y="162" />
              <mxPoint x="2161" y="162" />
              <mxPoint x="2161" y="147" />
            </Array>
          </mxGeometry>
        </mxCell>
        <mxCell id="BcHQkoFd5CSXZ37SSxC_-143" style="edgeStyle=orthogonalEdgeStyle;rounded=0;orthogonalLoop=1;jettySize=auto;html=1;startArrow=classic;startFill=1;entryX=0.5;entryY=0;entryDx=0;entryDy=0;dashed=1;" parent="1" target="BcHQkoFd5CSXZ37SSxC_-40" edge="1">
          <mxGeometry relative="1" as="geometry">
            <Array as="points">
              <mxPoint x="1891" y="327" />
              <mxPoint x="2750" y="327" />
            </Array>
            <mxPoint x="1891" y="297" as="sourcePoint" />
            <mxPoint x="2160" y="327" as="targetPoint" />
          </mxGeometry>
        </mxCell>
        <mxCell id="BcHQkoFd5CSXZ37SSxC_-144" style="edgeStyle=orthogonalEdgeStyle;rounded=0;orthogonalLoop=1;jettySize=auto;html=1;" parent="1" source="BcHQkoFd5CSXZ37SSxC_-132" edge="1">
          <mxGeometry relative="1" as="geometry">
            <mxPoint x="1834" y="177" as="targetPoint" />
          </mxGeometry>
        </mxCell>
        <mxCell id="BcHQkoFd5CSXZ37SSxC_-145" style="edgeStyle=orthogonalEdgeStyle;rounded=0;orthogonalLoop=1;jettySize=auto;html=1;entryX=0;entryY=0.5;entryDx=0;entryDy=0;" parent="1" source="BcHQkoFd5CSXZ37SSxC_-132" target="BcHQkoFd5CSXZ37SSxC_-34" edge="1">
          <mxGeometry relative="1" as="geometry">
            <Array as="points">
              <mxPoint x="1834" y="157" />
              <mxPoint x="2020" y="157" />
              <mxPoint x="2020" y="212" />
            </Array>
            <mxPoint x="2101.56" y="232.27999999999997" as="targetPoint" />
          </mxGeometry>
        </mxCell>
        <mxCell id="BcHQkoFd5CSXZ37SSxC_-146" style="edgeStyle=orthogonalEdgeStyle;rounded=0;orthogonalLoop=1;jettySize=auto;html=1;entryX=0.5;entryY=0;entryDx=0;entryDy=0;" parent="1" source="BcHQkoFd5CSXZ37SSxC_-147" target="BcHQkoFd5CSXZ37SSxC_-132" edge="1">
          <mxGeometry relative="1" as="geometry" />
        </mxCell>
        <mxCell id="BcHQkoFd5CSXZ37SSxC_-147" value="Сайт&lt;br&gt;Nginx" style="rounded=1;whiteSpace=wrap;html=1;" parent="1" vertex="1">
          <mxGeometry x="1948" y="-23" width="120" height="60" as="geometry" />
        </mxCell>
        <mxCell id="BcHQkoFd5CSXZ37SSxC_-148" value="1) Запрс в кеш" style="text;html=1;strokeColor=none;fillColor=none;align=center;verticalAlign=middle;whiteSpace=wrap;rounded=0;" parent="1" vertex="1">
          <mxGeometry x="2789.95" y="192" width="80.05" height="30" as="geometry" />
        </mxCell>
        <mxCell id="BcHQkoFd5CSXZ37SSxC_-149" value="&lt;h1 style=&quot;margin-top: 0px; box-sizing: inherit; font-family: &amp;quot;YS Text&amp;quot;, Arial, Helvetica, sans-serif; padding-top: 0px; border-top: none; color: rgba(0, 0, 0, 0.85); text-align: start; background-color: rgb(255, 255, 255); font-size: 25px;&quot;&gt;&lt;br&gt;&lt;/h1&gt;" style="text;strokeColor=none;fillColor=none;html=1;fontSize=24;fontStyle=1;verticalAlign=middle;align=center;" parent="1" vertex="1">
          <mxGeometry x="1890" y="-238" width="100" height="40" as="geometry" />
        </mxCell>
        <mxCell id="BcHQkoFd5CSXZ37SSxC_-150" value="&lt;font style=&quot;font-size: 24px;&quot;&gt;Service Discovery,&amp;nbsp; Балансировщик API Gateway&lt;/font&gt;" style="text;html=1;strokeColor=none;fillColor=none;align=center;verticalAlign=middle;whiteSpace=wrap;rounded=0;" parent="1" vertex="1">
          <mxGeometry x="1685" y="-258" width="490" height="30" as="geometry" />
        </mxCell>
        <mxCell id="BcHQkoFd5CSXZ37SSxC_-151" value="4 вариант схемы" style="text;strokeColor=none;fillColor=none;html=1;fontSize=14;fontStyle=0;verticalAlign=middle;align=center;" parent="1" vertex="1">
          <mxGeometry x="2060" y="-253" width="120" height="40" as="geometry" />
        </mxCell>
        <mxCell id="BcHQkoFd5CSXZ37SSxC_-152" value="регистрация" style="edgeLabel;html=1;align=center;verticalAlign=middle;resizable=0;points=[];" parent="1" vertex="1" connectable="0">
          <mxGeometry x="2001" y="232" as="geometry" />
        </mxCell>
        <mxCell id="BcHQkoFd5CSXZ37SSxC_-153" style="edgeStyle=orthogonalEdgeStyle;rounded=0;orthogonalLoop=1;jettySize=auto;html=1;entryX=0.5;entryY=1;entryDx=0;entryDy=0;" parent="1" source="BcHQkoFd5CSXZ37SSxC_-157" target="BcHQkoFd5CSXZ37SSxC_-136" edge="1">
          <mxGeometry relative="1" as="geometry">
            <Array as="points">
              <mxPoint x="1590" y="380" />
              <mxPoint x="2160" y="380" />
            </Array>
          </mxGeometry>
        </mxCell>
        <mxCell id="BcHQkoFd5CSXZ37SSxC_-154" value="регистраци" style="edgeLabel;html=1;align=center;verticalAlign=middle;resizable=0;points=[];" parent="BcHQkoFd5CSXZ37SSxC_-153" vertex="1" connectable="0">
          <mxGeometry x="-0.3789" y="4" relative="1" as="geometry">
            <mxPoint as="offset" />
          </mxGeometry>
        </mxCell>
        <mxCell id="BcHQkoFd5CSXZ37SSxC_-155" style="edgeStyle=orthogonalEdgeStyle;rounded=0;orthogonalLoop=1;jettySize=auto;html=1;dashed=1;" parent="1" source="BcHQkoFd5CSXZ37SSxC_-157" edge="1">
          <mxGeometry relative="1" as="geometry">
            <mxPoint x="2750" y="500" as="targetPoint" />
            <Array as="points">
              <mxPoint x="1640" y="350" />
              <mxPoint x="2750" y="350" />
            </Array>
          </mxGeometry>
        </mxCell>
        <mxCell id="BcHQkoFd5CSXZ37SSxC_-156" value="запрос к бд" style="edgeLabel;html=1;align=center;verticalAlign=middle;resizable=0;points=[];" parent="BcHQkoFd5CSXZ37SSxC_-155" vertex="1" connectable="0">
          <mxGeometry x="-0.3624" y="-1" relative="1" as="geometry">
            <mxPoint as="offset" />
          </mxGeometry>
        </mxCell>
        <mxCell id="BcHQkoFd5CSXZ37SSxC_-157" value="pymongo-api...N- инстанс" style="rounded=0;whiteSpace=wrap;html=1;" parent="1" vertex="1">
          <mxGeometry x="1490" y="182" width="200" height="120" as="geometry" />
        </mxCell>
        <mxCell id="BcHQkoFd5CSXZ37SSxC_-158" style="edgeStyle=orthogonalEdgeStyle;rounded=0;orthogonalLoop=1;jettySize=auto;html=1;entryX=0.002;entryY=0.687;entryDx=0;entryDy=0;entryPerimeter=0;dashed=1;dashPattern=1 1;" parent="1" source="BcHQkoFd5CSXZ37SSxC_-157" target="BcHQkoFd5CSXZ37SSxC_-31" edge="1">
          <mxGeometry relative="1" as="geometry">
            <Array as="points">
              <mxPoint x="1670" y="341" />
            </Array>
          </mxGeometry>
        </mxCell>
        <mxCell id="BcHQkoFd5CSXZ37SSxC_-159" value="запрос в кеш" style="edgeLabel;html=1;align=center;verticalAlign=middle;resizable=0;points=[];" parent="BcHQkoFd5CSXZ37SSxC_-158" vertex="1" connectable="0">
          <mxGeometry x="-0.8619" y="4" relative="1" as="geometry">
            <mxPoint as="offset" />
          </mxGeometry>
        </mxCell>
        <mxCell id="BcHQkoFd5CSXZ37SSxC_-160" value="Text" style="text;html=1;strokeColor=none;fillColor=none;align=center;verticalAlign=middle;whiteSpace=wrap;rounded=0;" parent="1" vertex="1">
          <mxGeometry x="1770" y="360" width="60" height="30" as="geometry" />
        </mxCell>
        <mxCell id="BcHQkoFd5CSXZ37SSxC_-161" style="edgeStyle=orthogonalEdgeStyle;rounded=0;orthogonalLoop=1;jettySize=auto;html=1;entryX=0.5;entryY=0;entryDx=0;entryDy=0;" parent="1" source="BcHQkoFd5CSXZ37SSxC_-162" target="BcHQkoFd5CSXZ37SSxC_-147" edge="1">
          <mxGeometry relative="1" as="geometry">
            <Array as="points">
              <mxPoint x="2565" y="-60" />
              <mxPoint x="2008" y="-60" />
            </Array>
          </mxGeometry>
        </mxCell>
        <mxCell id="BcHQkoFd5CSXZ37SSxC_-162" value="&lt;font color=&quot;#f7f7f7&quot;&gt;CDN&lt;/font&gt;" style="rounded=1;whiteSpace=wrap;html=1;fillColor=#7880f2;" parent="1" vertex="1">
          <mxGeometry x="2360" y="-625" width="365" height="60" as="geometry" />
        </mxCell>
        <mxCell id="BcHQkoFd5CSXZ37SSxC_-163" value="&lt;font style=&quot;font-size: 48px;&quot;&gt;Регион2&lt;/font&gt;" style="text;html=1;strokeColor=none;fillColor=none;align=center;verticalAlign=middle;whiteSpace=wrap;rounded=0;" parent="1" vertex="1">
          <mxGeometry x="1440" y="-615" width="60" height="30" as="geometry" />
        </mxCell>
        <mxCell id="BcHQkoFd5CSXZ37SSxC_-165" style="edgeStyle=orthogonalEdgeStyle;rounded=0;orthogonalLoop=1;jettySize=auto;html=1;" parent="1" source="BcHQkoFd5CSXZ37SSxC_-164" target="BcHQkoFd5CSXZ37SSxC_-22" edge="1">
          <mxGeometry relative="1" as="geometry" />
        </mxCell>
        <mxCell id="BcHQkoFd5CSXZ37SSxC_-164" value="&lt;span style=&quot;font-size: 48px;&quot;&gt;&lt;font color=&quot;#f5f5f5&quot;&gt;Основной Сервер&lt;/font&gt;&lt;br&gt;&lt;/span&gt;" style="rounded=1;whiteSpace=wrap;html=1;fillColor=#7880f2;" parent="1" vertex="1">
          <mxGeometry x="960" y="-850" width="490" height="160" as="geometry" />
        </mxCell>
        <mxCell id="BcHQkoFd5CSXZ37SSxC_-166" style="edgeStyle=orthogonalEdgeStyle;rounded=0;orthogonalLoop=1;jettySize=auto;html=1;entryX=0.555;entryY=0;entryDx=0;entryDy=0;entryPerimeter=0;" parent="1" source="BcHQkoFd5CSXZ37SSxC_-164" target="BcHQkoFd5CSXZ37SSxC_-162" edge="1">
          <mxGeometry relative="1" as="geometry" />
        </mxCell>
        <mxCell id="Lh62XonPTOlsz5nJ_BSS-9" value="" style="shape=flexArrow;endArrow=classic;html=1;rounded=0;entryX=0.149;entryY=0.579;entryDx=0;entryDy=0;entryPerimeter=0;fillColor=#eebaba;" parent="1" target="BcHQkoFd5CSXZ37SSxC_-18" edge="1">
          <mxGeometry width="50" height="50" relative="1" as="geometry">
            <mxPoint x="-479" y="467" as="sourcePoint" />
            <mxPoint x="-781" y="568.9971428571431" as="targetPoint" />
          </mxGeometry>
        </mxCell>
        <mxCell id="Lh62XonPTOlsz5nJ_BSS-10" value="увелечение инстансов" style="edgeLabel;html=1;align=center;verticalAlign=middle;resizable=0;points=[];" parent="Lh62XonPTOlsz5nJ_BSS-9" vertex="1" connectable="0">
          <mxGeometry x="-0.4054" y="-3" relative="1" as="geometry">
            <mxPoint as="offset" />
          </mxGeometry>
        </mxCell>
        <mxCell id="Lh62XonPTOlsz5nJ_BSS-14" value="" style="shape=flexArrow;endArrow=classic;html=1;rounded=0;entryX=0.149;entryY=0.579;entryDx=0;entryDy=0;entryPerimeter=0;fillColor=#eebaba;" parent="1" edge="1">
          <mxGeometry width="50" height="50" relative="1" as="geometry">
            <mxPoint x="2002" y="399" as="sourcePoint" />
            <mxPoint x="1710" y="400" as="targetPoint" />
          </mxGeometry>
        </mxCell>
        <mxCell id="Lh62XonPTOlsz5nJ_BSS-15" value="увелечение инстансов" style="edgeLabel;html=1;align=center;verticalAlign=middle;resizable=0;points=[];" parent="Lh62XonPTOlsz5nJ_BSS-14" vertex="1" connectable="0">
          <mxGeometry x="-0.4054" y="-3" relative="1" as="geometry">
            <mxPoint as="offset" />
          </mxGeometry>
        </mxCell>
      </root>
    </mxGraphModel>
  </diagram>
</mxfile>
